<?xml version="1.0" encoding="utf-8"?>
<!-- Generator: Adobe Illustrator 22.1.0, SVG Export Plug-In . SVG Version: 6.00 Build 0)  -->
<svg version="1.1" id="Capa_1" xmlns="http://www.w3.org/2000/svg" xmlns:xlink="http://www.w3.org/1999/xlink" x="0px" y="0px"
	 viewBox="0 0 141.7 141.7" style="enable-background:new 0 0 141.7 141.7;" xml:space="preserve">
<style type="text/css">
	.st0{fill:#04c3fc;}
	.st1{opacity:0.5;enable-background:new    ;}
</style>
<g>
	<g>
		<g>
			<g>
				<g>
					<path class="st0" d="M60.8,90.2c-0.7,0-1.4-0.3-1.8-0.9c-0.7-1-0.5-2.4,0.5-3.1L82,69.6c1-0.7,2.4-0.5,3.1,0.5
						c0.7,1,0.5,2.4-0.5,3.1L62.1,89.8C61.7,90.1,61.3,90.2,60.8,90.2z"/>
				</g>
				<g>
					<path class="st0" d="M83.3,73.6c-0.5,0-0.9-0.1-1.3-0.4L59.5,56.5c-1-0.7-1.2-2.1-0.5-3.1c0.7-1,2.1-1.2,3.1-0.5l22.5,16.7
						c1,0.7,1.2,2.1,0.5,3.1C84.7,73.3,84,73.6,83.3,73.6z"/>
				</g>
			</g>
			<g>
				<path class="st0" d="M70.9,119.4c-26.5,0-48-21.5-48-48c0-26.5,21.5-48,48-48c26.5,0,48,21.5,48,48
					C118.9,97.9,97.4,119.4,70.9,119.4z M70.9,27.8c-24,0-43.6,19.5-43.6,43.6S46.9,115,70.9,115s43.6-19.5,43.6-43.6
					S94.9,27.8,70.9,27.8z"/>
			</g>
		</g>
		<g>
			<path class="st0" d="M60.8,90.2c-1.2,0-2.2-1-2.2-2.2V54.7c0-1.2,1-2.2,2.2-2.2s2.2,1,2.2,2.2V88C63,89.2,62,90.2,60.8,90.2z"/>
		</g>
	</g>
	<g class="st1">
		<path class="st0" d="M70.9,138.3C34,138.3,4,108.3,4,71.4C4,34.5,34,4.5,70.9,4.5c36.9,0,66.9,30,66.9,66.9
			C137.8,108.3,107.8,138.3,70.9,138.3z M70.9,17.9c-29.5,0-53.5,24-53.5,53.5c0,29.5,24,53.5,53.5,53.5c29.5,0,53.5-24,53.5-53.5
			C124.4,41.9,100.4,17.9,70.9,17.9z"/>
	</g>
</g>
</svg>
