<svg id="Capa_1" data-name="Capa 1" xmlns="http://www.w3.org/2000/svg" viewBox="0 0 141.7 141.7"><defs><style>.cls-1{fill:#04c3fc;}.cls-2{opacity:0.5;}</style></defs><title>Trailer</title><path class="cls-1" d="M60.8,90.42a2.21,2.21,0,0,1-1.32-4l22.27-16.5a2.21,2.21,0,0,1,2.63,3.56L62.11,90A2.21,2.21,0,0,1,60.8,90.42Z"/><path class="cls-1" d="M83.07,73.93a2.24,2.24,0,0,1-1.32-.43L59.48,57a2.21,2.21,0,1,1,2.63-3.55L84.38,69.94a2.21,2.21,0,0,1-1.31,4Z"/><path class="cls-1" d="M70.84,119.3a47.58,47.58,0,1,1,47.58-47.58A47.63,47.63,0,0,1,70.84,119.3Zm0-90.74A43.16,43.16,0,1,0,114,71.72,43.21,43.21,0,0,0,70.84,28.56Z"/><path class="cls-1" d="M60.8,90.42a2.21,2.21,0,0,1-2.21-2.21v-33a2.21,2.21,0,0,1,4.42,0v33A2.21,2.21,0,0,1,60.8,90.42Z"/><g class="cls-2"><path class="cls-1" d="M70.85,137.94a66.22,66.22,0,1,1,66.22-66.22A66.3,66.3,0,0,1,70.85,137.94Zm0-119.18a53,53,0,1,0,53,53A53,53,0,0,0,70.85,18.76Z"/></g><circle class="cls-1" cx="70.84" cy="117.06" r="5.48"/></svg>