<svg
 xmlns="http://www.w3.org/2000/svg"
 xmlns:xlink="http://www.w3.org/1999/xlink"
 width="132px" height="23px">
<defs>
<filter id="Filter_0">
    <feFlood flood-color="rgb(255, 255, 255)" flood-opacity="1" result="floodOut" />
    <feComposite operator="atop" in="floodOut" in2="SourceGraphic" result="compOut" />
    <feBlend mode="normal" in="compOut" in2="SourceGraphic" />
</filter>

</defs>
<g filter="url(#Filter_0)">
<path fill-rule="evenodd"  fill="rgb(255, 255, 255)"
 d="M131.807,6.307 L125.250,22.650 L122.053,22.650 L115.495,6.324 L118.887,6.324 L123.706,19.010 L128.513,6.307 L131.807,6.307 ZM114.365,19.940 L114.722,19.940 L114.703,22.846 L114.365,22.846 C110.167,22.846 107.454,20.348 107.454,16.119 L107.454,1.900 L110.377,1.900 L110.377,6.324 L114.590,6.324 L114.590,9.017 L110.377,9.017 L110.377,16.119 C110.377,18.519 112.024,19.940 114.365,19.940 ZM100.237,21.245 C99.120,22.340 97.600,22.993 95.729,22.993 C91.160,22.993 87.685,19.173 87.685,14.454 C87.685,9.753 91.160,5.998 95.729,5.998 C97.600,5.998 99.120,6.601 100.237,7.695 L100.237,1.426 L104.224,1.426 L104.224,22.650 L100.237,22.650 L100.237,21.245 ZM100.237,12.380 C100.237,12.217 100.169,12.087 100.121,11.989 C99.347,10.633 97.796,9.818 96.164,9.818 C93.710,9.818 91.725,11.924 91.725,14.454 C91.725,17.033 93.710,19.106 96.164,19.106 C97.844,19.106 99.394,18.210 100.155,16.805 C100.185,16.756 100.237,16.609 100.237,16.528 L100.237,12.380 ZM83.891,5.083 C82.615,5.083 81.584,4.022 81.584,2.732 C81.584,1.426 82.615,0.382 83.891,0.382 C85.167,0.382 86.199,1.426 86.199,2.732 C86.199,4.022 85.167,5.083 83.891,5.083 ZM71.636,22.976 C66.983,22.976 63.204,19.173 63.204,14.454 C63.204,9.753 66.983,5.998 71.636,5.998 C76.303,5.998 80.081,9.753 80.081,14.454 C80.081,19.173 76.303,22.976 71.636,22.976 ZM71.636,10.014 C69.212,10.014 67.243,12.005 67.243,14.454 C67.243,16.919 69.212,18.911 71.636,18.911 C74.089,18.911 76.041,16.919 76.041,14.454 C76.041,12.005 74.089,10.014 71.636,10.014 ZM59.021,13.933 L59.021,22.650 L55.032,22.650 L55.032,13.933 C55.032,8.756 57.777,5.998 62.912,5.998 L62.912,9.980 C60.360,9.980 59.021,11.352 59.021,13.933 ZM48.927,21.245 C47.814,22.340 46.296,22.976 44.422,22.976 C39.851,22.976 36.380,19.173 36.380,14.454 C36.380,9.753 39.851,5.948 44.422,5.948 C46.296,5.948 47.814,6.601 48.927,7.695 L48.927,1.426 L52.917,1.426 L52.917,22.650 L48.927,22.650 L48.927,21.245 ZM48.927,12.380 C48.927,12.217 48.863,12.087 48.815,11.989 C48.041,10.633 46.489,9.818 44.859,9.818 C42.404,9.818 40.415,11.924 40.415,14.454 C40.415,17.033 42.404,19.106 44.859,19.106 C46.539,19.106 48.087,18.210 48.847,16.805 C48.881,16.756 48.927,16.593 48.927,16.511 L48.927,12.380 ZM30.728,13.817 C30.728,11.679 29.227,10.047 27.109,10.047 C24.979,10.047 23.497,11.679 23.497,13.817 L23.497,22.650 L19.503,22.650 L19.503,13.817 C19.503,9.475 22.831,5.998 27.109,5.998 C31.374,5.998 34.715,9.475 34.715,13.817 L34.715,22.650 L30.728,22.650 L30.728,13.817 ZM13.398,21.245 C12.283,22.340 10.766,22.976 8.894,22.976 C4.324,22.976 0.852,19.173 0.852,14.454 C0.852,9.753 4.324,5.998 8.894,5.998 C10.766,5.998 12.283,6.601 13.398,7.695 L13.398,6.324 L17.389,6.324 L17.389,22.650 L13.398,22.650 L13.398,21.245 ZM13.398,12.380 C13.398,12.217 13.334,12.087 13.286,11.989 C12.593,10.585 10.962,9.818 9.330,9.818 C6.874,9.818 4.891,11.924 4.891,14.454 C4.891,17.033 6.874,19.106 9.330,19.106 C11.009,19.106 12.559,18.210 13.319,16.805 C13.352,16.756 13.398,16.577 13.398,16.495 L13.398,12.380 ZM85.877,22.650 L81.889,22.650 L81.889,6.324 L85.877,6.324 L85.877,22.650 Z"/>
</g>
</svg>
