<svg
 xmlns="http://www.w3.org/2000/svg"
 xmlns:xlink="http://www.w3.org/1999/xlink"
 width="45px" height="22px">
<defs>
<filter id="Filter_0">
    <feFlood flood-color="rgb(255, 255, 255)" flood-opacity="1" result="floodOut" />
    <feComposite operator="atop" in="floodOut" in2="SourceGraphic" result="compOut" />
    <feBlend mode="normal" in="compOut" in2="SourceGraphic" />
</filter>

</defs>
<g filter="url(#Filter_0)">
<path fill-rule="evenodd"  fill="rgb(255, 255, 255)"
 d="M10.296,1.691 C11.075,0.744 12.398,0.040 13.487,-0.004 C13.625,1.304 13.118,2.626 12.360,3.568 C11.601,4.517 10.362,5.252 9.146,5.155 C8.976,3.869 9.590,2.527 10.296,1.691 ZM16.169,19.338 C15.304,20.642 14.411,21.940 12.998,21.968 C11.610,21.994 11.163,21.116 9.578,21.116 C7.995,21.116 7.499,21.940 6.187,21.994 C4.825,22.048 3.787,20.586 2.916,19.288 C1.142,16.630 -0.223,11.781 1.606,8.510 C2.514,6.884 4.130,5.853 5.887,5.825 C7.230,5.802 8.485,6.755 9.309,6.755 C10.115,6.755 11.566,5.641 13.263,5.770 C13.934,5.824 15.833,6.029 17.057,7.898 C16.959,7.960 14.800,9.261 14.824,11.969 C14.851,15.206 17.570,16.284 17.602,16.296 C17.577,16.374 17.166,17.833 16.169,19.338 ZM29.396,8.785 L26.560,8.785 L26.560,16.808 C26.560,17.158 26.580,17.466 26.609,17.714 C26.636,17.968 26.698,18.182 26.805,18.354 C26.902,18.532 27.051,18.656 27.242,18.744 C27.458,18.845 27.733,18.880 28.083,18.880 C28.295,18.880 28.516,18.875 28.739,18.862 C28.959,18.857 29.176,18.828 29.396,18.768 L29.396,21.326 C29.053,21.368 28.713,21.398 28.375,21.444 C28.054,21.474 27.714,21.492 27.365,21.492 C26.540,21.492 25.875,21.409 25.366,21.261 C24.862,21.084 24.471,20.840 24.182,20.527 C23.902,20.195 23.709,19.804 23.605,19.319 C23.510,18.828 23.456,18.289 23.425,17.662 L23.425,8.785 L21.057,8.785 L21.057,6.321 L23.425,6.321 L23.425,1.821 L26.560,1.821 L26.560,6.321 L29.396,6.321 L29.396,8.785 ZM39.635,21.356 L36.114,21.356 L30.940,6.321 L34.352,6.321 L37.960,17.868 L38.014,17.868 L41.484,6.321 L44.725,6.321 L39.635,21.356 Z"/>
</g>
</svg>
