<svg
 xmlns="http://www.w3.org/2000/svg"
 xmlns:xlink="http://www.w3.org/1999/xlink"
 width="121px" height="33px">
<defs>
<filter id="Filter_0">
    <feFlood flood-color="rgb(255, 255, 255)" flood-opacity="1" result="floodOut" />
    <feComposite operator="atop" in="floodOut" in2="SourceGraphic" result="compOut" />
    <feBlend mode="normal" in="compOut" in2="SourceGraphic" />
</filter>

</defs>
<g filter="url(#Filter_0)">
<path fill-rule="evenodd"  fill="rgb(255, 255, 255)"
 d="M117.763,28.712 C117.763,28.965 117.789,29.200 117.840,29.415 C117.890,29.631 117.987,29.812 118.132,29.961 C118.336,30.200 118.625,30.318 119.001,30.318 C119.248,30.318 119.444,30.292 119.590,30.242 C119.735,30.192 119.871,30.123 120.000,30.036 L120.807,32.526 C120.471,32.684 120.113,32.804 119.730,32.883 C119.347,32.962 118.920,33.002 118.458,33.002 C117.923,33.002 117.441,32.917 117.014,32.748 C116.585,32.579 116.227,32.347 115.938,32.052 C115.258,31.389 114.914,30.446 114.914,29.225 L114.914,24.475 L113.046,24.475 L113.046,22.050 L114.914,22.050 L114.914,18.803 L117.763,18.803 L117.763,22.050 L120.370,22.050 L120.370,24.475 L117.763,24.475 L117.763,28.712 ZM107.371,25.858 L109.005,26.249 C110.090,26.508 110.897,26.923 111.425,27.493 C111.956,28.064 112.219,28.739 112.219,29.518 C112.219,29.980 112.110,30.419 111.894,30.837 C111.676,31.257 111.367,31.628 110.971,31.952 C110.571,32.277 110.094,32.534 109.535,32.721 C108.979,32.909 108.359,33.002 107.677,33.002 C106.980,33.002 106.361,32.916 105.818,32.743 C105.274,32.569 104.804,32.342 104.405,32.061 C104.007,31.779 103.671,31.455 103.395,31.087 C103.120,30.718 102.911,30.347 102.765,29.971 L105.307,28.890 C105.555,29.438 105.883,29.846 106.298,30.113 C106.710,30.379 107.170,30.514 107.677,30.514 C108.198,30.514 108.610,30.419 108.915,30.231 C109.220,30.044 109.374,29.820 109.374,29.561 C109.374,29.272 109.246,29.039 108.993,28.857 C108.738,28.678 108.301,28.515 107.677,28.370 L106.180,28.046 C105.843,27.974 105.499,27.858 105.146,27.699 C104.790,27.541 104.467,27.339 104.178,27.094 C103.888,26.848 103.651,26.552 103.460,26.206 C103.272,25.858 103.180,25.456 103.180,24.994 C103.180,24.475 103.290,24.012 103.514,23.609 C103.741,23.204 104.048,22.861 104.439,22.580 C104.828,22.299 105.289,22.083 105.818,21.931 C106.347,21.779 106.916,21.704 107.524,21.704 C108.540,21.704 109.445,21.903 110.243,22.299 C111.037,22.695 111.626,23.328 112.001,24.192 L109.547,25.189 C109.345,24.771 109.048,24.467 108.657,24.279 C108.263,24.092 107.872,23.998 107.484,23.998 C107.076,23.998 106.721,24.082 106.418,24.247 C106.113,24.413 105.963,24.626 105.963,24.886 C105.963,25.131 106.087,25.326 106.339,25.471 C106.593,25.614 106.937,25.744 107.371,25.858 ZM98.672,31.531 L98.497,31.531 C98.164,31.934 97.763,32.281 97.292,32.569 C96.819,32.857 96.216,33.002 95.478,33.002 C94.927,33.002 94.409,32.912 93.923,32.731 C93.435,32.551 93.014,32.302 92.651,31.985 C92.290,31.668 92.008,31.286 91.805,30.837 C91.600,30.391 91.500,29.900 91.500,29.366 C91.500,28.817 91.608,28.324 91.826,27.883 C92.044,27.444 92.347,27.064 92.742,26.746 C93.131,26.430 93.592,26.188 94.117,26.022 C94.648,25.856 95.222,25.772 95.846,25.772 C96.543,25.772 97.115,25.827 97.564,25.935 C98.014,26.044 98.382,26.156 98.672,26.270 L98.672,25.947 C98.672,25.384 98.445,24.918 97.999,24.551 C97.549,24.183 96.991,23.998 96.324,23.998 C95.338,23.998 94.508,24.410 93.823,25.232 L91.761,23.825 C92.892,22.411 94.431,21.704 96.390,21.704 C98.041,21.704 99.303,22.090 100.170,22.861 C101.040,23.634 101.474,24.777 101.474,26.293 L101.474,32.655 L98.672,32.655 L98.672,31.531 ZM97.641,27.970 C97.285,27.876 96.897,27.829 96.477,27.829 C95.796,27.829 95.270,27.978 94.901,28.273 C94.531,28.569 94.347,28.932 94.347,29.366 C94.347,29.799 94.527,30.145 94.881,30.405 C95.234,30.665 95.642,30.795 96.109,30.795 C96.482,30.795 96.831,30.726 97.150,30.590 C97.469,30.451 97.740,30.272 97.965,30.048 C98.190,29.824 98.364,29.565 98.486,29.269 C98.611,28.974 98.672,28.667 98.672,28.348 C98.338,28.190 97.996,28.064 97.641,27.970 ZM83.474,29.561 C83.726,29.820 84.020,30.023 84.354,30.167 C84.688,30.311 85.042,30.383 85.420,30.383 C86.013,30.383 86.516,30.250 86.932,29.983 C87.340,29.715 87.671,29.330 87.917,28.826 L90.526,29.949 C90.062,30.846 89.414,31.577 88.581,32.148 C87.748,32.717 86.708,33.002 85.465,33.002 C84.636,33.002 83.879,32.861 83.192,32.579 C82.501,32.299 81.910,31.906 81.411,31.401 C80.910,30.896 80.518,30.301 80.236,29.615 C79.951,28.929 79.810,28.175 79.810,27.352 C79.810,26.530 79.951,25.772 80.236,25.080 C80.518,24.388 80.910,23.792 81.411,23.295 C81.910,22.797 82.501,22.407 83.192,22.126 C83.879,21.845 84.636,21.704 85.465,21.704 C86.694,21.704 87.730,21.985 88.570,22.548 C89.409,23.111 90.028,23.840 90.417,24.735 L87.811,25.816 C87.563,25.326 87.250,24.955 86.865,24.701 C86.479,24.449 85.997,24.323 85.420,24.323 C85.042,24.323 84.688,24.395 84.354,24.539 C84.020,24.684 83.726,24.886 83.474,25.145 C83.220,25.404 83.022,25.723 82.875,26.097 C82.731,26.474 82.659,26.891 82.659,27.352 C82.659,27.815 82.731,28.233 82.875,28.609 C83.022,28.984 83.220,29.300 83.474,29.561 ZM78.700,28.003 L70.681,28.003 C70.740,28.435 70.858,28.807 71.041,29.117 C71.220,29.427 71.446,29.687 71.715,29.897 C71.981,30.106 72.276,30.258 72.595,30.351 C72.913,30.444 73.241,30.491 73.570,30.491 C74.225,30.491 74.763,30.345 75.193,30.048 C75.618,29.752 75.955,29.380 76.202,28.932 L78.571,30.101 C78.081,30.967 77.416,31.668 76.583,32.201 C75.749,32.736 74.731,33.002 73.528,33.002 C72.718,33.002 71.966,32.861 71.278,32.579 C70.592,32.299 69.995,31.906 69.486,31.401 C68.979,30.896 68.582,30.301 68.300,29.615 C68.021,28.929 67.880,28.175 67.880,27.352 C67.880,26.588 68.017,25.863 68.291,25.178 C68.567,24.492 68.949,23.893 69.443,23.381 C69.936,22.869 70.518,22.462 71.191,22.158 C71.863,21.856 72.608,21.704 73.423,21.704 C74.276,21.704 75.035,21.845 75.702,22.126 C76.367,22.407 76.927,22.797 77.376,23.295 C77.824,23.792 78.167,24.381 78.398,25.059 C78.629,25.738 78.747,26.474 78.747,27.267 C78.747,27.368 78.747,27.454 78.747,27.526 C78.731,27.613 78.724,27.692 78.724,27.765 C78.707,27.836 78.700,27.916 78.700,28.003 ZM75.800,25.361 C75.692,25.131 75.532,24.914 75.321,24.713 C75.110,24.510 74.853,24.344 74.540,24.214 C74.227,24.084 73.856,24.020 73.423,24.020 C72.811,24.020 72.276,24.192 71.814,24.539 C71.348,24.886 71.023,25.368 70.832,25.990 L75.986,25.990 C75.971,25.802 75.909,25.593 75.800,25.361 ZM63.484,26.487 C63.484,25.045 62.890,24.323 61.703,24.323 C61.326,24.323 60.994,24.406 60.701,24.571 C60.413,24.738 60.170,24.961 59.976,25.243 C59.779,25.524 59.626,25.858 59.517,26.249 C59.410,26.638 59.354,27.057 59.354,27.505 L59.354,32.655 L56.508,32.655 L56.508,26.487 C56.508,25.045 55.884,24.323 54.640,24.323 C54.279,24.323 53.957,24.406 53.681,24.571 C53.407,24.738 53.175,24.961 52.986,25.243 C52.798,25.524 52.654,25.858 52.552,26.249 C52.452,26.638 52.400,27.057 52.400,27.505 L52.400,32.655 L49.553,32.655 L49.553,22.050 L52.230,22.050 L52.230,23.436 L52.400,23.436 C52.734,22.916 53.187,22.498 53.758,22.180 C54.331,21.863 54.965,21.704 55.659,21.704 C56.471,21.704 57.154,21.891 57.706,22.266 C58.255,22.643 58.643,23.104 58.877,23.652 C59.210,23.118 59.684,22.659 60.291,22.278 C60.896,21.894 61.640,21.704 62.507,21.704 C63.157,21.704 63.722,21.808 64.201,22.018 C64.680,22.228 65.073,22.520 65.385,22.894 C65.696,23.270 65.931,23.720 66.092,24.247 C66.251,24.774 66.331,25.348 66.331,25.968 L66.331,32.655 L63.484,32.655 L63.484,26.487 ZM46.368,31.411 C45.868,31.908 45.274,32.299 44.586,32.579 C43.899,32.861 43.141,33.002 42.318,33.002 C41.489,33.002 40.732,32.861 40.045,32.579 C39.357,32.299 38.762,31.908 38.261,31.411 C37.763,30.913 37.371,30.318 37.089,29.626 C36.806,28.932 36.664,28.175 36.664,27.352 C36.664,26.530 36.806,25.772 37.089,25.080 C37.371,24.388 37.763,23.792 38.261,23.295 C38.762,22.797 39.357,22.407 40.045,22.126 C40.732,21.845 41.489,21.704 42.318,21.704 C43.141,21.704 43.899,21.845 44.586,22.126 C45.274,22.407 45.868,22.797 46.368,23.295 C46.866,23.792 47.259,24.388 47.541,25.080 C47.825,25.772 47.964,26.530 47.964,27.352 C47.964,28.175 47.825,28.932 47.541,29.626 C47.259,30.318 46.866,30.913 46.368,31.411 ZM44.890,26.076 C44.737,25.701 44.533,25.384 44.271,25.123 C44.009,24.863 43.709,24.666 43.370,24.529 C43.028,24.391 42.678,24.323 42.318,24.323 C41.940,24.323 41.583,24.391 41.248,24.529 C40.918,24.666 40.621,24.863 40.359,25.123 C40.099,25.384 39.891,25.701 39.741,26.076 C39.588,26.451 39.512,26.877 39.512,27.352 C39.512,27.829 39.588,28.255 39.741,28.630 C39.891,29.005 40.099,29.322 40.359,29.582 C40.621,29.843 40.918,30.040 41.248,30.178 C41.583,30.315 41.940,30.383 42.318,30.383 C42.678,30.383 43.028,30.315 43.370,30.178 C43.709,30.040 44.009,29.843 44.271,29.582 C44.533,29.322 44.737,29.005 44.890,28.630 C45.041,28.255 45.119,27.829 45.119,27.352 C45.119,26.877 45.041,26.451 44.890,26.076 ZM35.363,8.056 C36.027,8.056 36.493,7.729 36.830,7.235 L37.848,7.910 C37.519,8.393 36.728,9.226 35.363,9.226 C33.668,9.226 32.404,7.922 32.404,6.257 C32.404,4.490 33.681,3.287 35.215,3.287 C36.764,3.287 37.519,4.514 37.768,5.178 L37.901,5.515 L33.915,7.157 C34.222,7.752 34.696,8.056 35.363,8.056 ZM36.368,5.064 C36.220,4.694 35.783,4.435 35.261,4.435 C34.595,4.435 33.668,5.019 33.702,6.166 L36.368,5.064 ZM33.927,21.852 C34.240,21.753 34.546,21.704 34.852,21.704 C35.226,21.704 35.549,21.744 35.816,21.824 C36.085,21.905 36.313,22.008 36.499,22.137 L35.739,24.668 C35.566,24.582 35.373,24.514 35.164,24.463 C34.955,24.413 34.697,24.388 34.392,24.388 C34.002,24.388 33.644,24.464 33.328,24.617 C33.009,24.769 32.738,24.983 32.513,25.258 C32.288,25.533 32.117,25.856 31.995,26.226 C31.868,26.597 31.807,26.998 31.807,27.434 L31.807,32.655 L28.960,32.655 L28.960,22.050 L31.632,22.050 L31.632,23.522 L31.807,23.522 C31.938,23.262 32.111,23.024 32.328,22.808 C32.544,22.592 32.788,22.402 33.057,22.242 C33.324,22.081 33.615,21.951 33.927,21.852 ZM30.424,0.378 L31.722,0.378 L31.722,9.045 L30.424,9.045 L30.424,0.378 ZM26.545,11.891 C25.098,11.891 24.232,10.924 23.904,10.136 L25.044,9.664 C25.246,10.147 25.744,10.721 26.545,10.721 C27.526,10.721 28.138,10.114 28.138,8.978 L28.138,8.551 L28.094,8.551 C27.798,8.910 27.234,9.226 26.523,9.226 C25.032,9.226 23.666,7.932 23.666,6.268 C23.666,4.593 25.032,3.287 26.523,3.287 C27.234,3.287 27.798,3.603 28.094,3.951 L28.138,3.951 L28.138,3.468 L29.380,3.468 L29.380,8.798 C29.380,10.991 28.081,11.891 26.545,11.891 ZM26.636,4.457 C25.731,4.457 24.975,5.222 24.975,6.268 C24.975,7.302 25.731,8.056 26.636,8.056 C27.526,8.056 28.227,7.302 28.227,6.268 C28.227,5.222 27.526,4.457 26.636,4.457 ZM20.075,9.226 C18.429,9.226 17.083,7.966 17.083,6.257 C17.083,4.535 18.429,3.287 20.075,3.287 C21.726,3.287 23.071,4.535 23.071,6.257 C23.071,7.966 21.726,9.226 20.075,9.226 ZM20.075,4.457 C19.172,4.457 18.394,5.188 18.394,6.257 C18.394,7.314 19.172,8.056 20.075,8.056 C20.981,8.056 21.760,7.314 21.760,6.257 C21.760,5.188 20.981,4.457 20.075,4.457 ZM19.545,21.509 L19.368,23.436 L19.545,23.436 C19.849,22.930 20.286,22.515 20.858,22.192 C21.431,21.865 22.073,21.704 22.781,21.704 C24.157,21.704 25.176,22.108 25.836,22.916 C26.495,23.724 26.824,24.828 26.824,26.227 L26.824,32.655 L23.975,32.655 L23.975,26.574 C23.975,25.838 23.805,25.279 23.456,24.896 C23.107,24.514 22.621,24.323 22.000,24.323 C21.610,24.323 21.260,24.406 20.958,24.571 C20.652,24.738 20.396,24.965 20.184,25.254 C19.975,25.542 19.816,25.877 19.708,26.260 C19.597,26.642 19.545,27.050 19.545,27.483 L19.545,32.655 L16.696,32.655 L16.696,17.158 L19.545,17.158 L19.545,21.509 ZM13.490,9.226 C11.842,9.226 10.499,7.966 10.499,6.257 C10.499,4.535 11.842,3.287 13.490,3.287 C15.140,3.287 16.482,4.535 16.482,6.257 C16.482,7.966 15.140,9.226 13.490,9.226 ZM13.490,4.457 C12.589,4.457 11.808,5.188 11.808,6.257 C11.808,7.314 12.589,8.056 13.490,8.056 C14.394,8.056 15.174,7.314 15.174,6.257 C15.174,5.188 14.394,4.457 13.490,4.457 ZM5.579,9.226 C3.025,9.226 0.878,7.157 0.878,4.615 C0.878,2.074 3.025,0.004 5.579,0.004 C6.988,0.004 7.990,0.555 8.749,1.275 L7.857,2.163 C7.314,1.657 6.582,1.263 5.579,1.263 C3.713,1.263 2.256,2.759 2.256,4.615 C2.256,6.470 3.713,7.966 5.579,7.966 C6.786,7.966 7.475,7.483 7.913,7.044 C8.275,6.684 8.519,6.150 8.610,5.442 L5.579,5.442 L5.579,4.182 L9.836,4.182 C9.881,4.460 9.899,4.731 9.899,4.985 C9.899,5.930 9.640,7.100 8.805,7.932 C7.990,8.775 6.956,9.226 5.579,9.226 ZM3.196,19.150 C3.919,18.429 4.779,17.859 5.771,17.440 C6.763,17.022 7.840,16.812 9.001,16.812 C10.245,16.812 11.342,17.029 12.292,17.462 C13.241,17.894 14.084,18.522 14.823,19.345 L12.758,21.335 C12.295,20.803 11.763,20.376 11.161,20.059 C10.558,19.742 9.847,19.583 9.021,19.583 C8.294,19.583 7.615,19.709 6.977,19.962 C6.340,20.215 5.783,20.571 5.315,21.033 C4.845,21.496 4.472,22.054 4.197,22.710 C3.919,23.367 3.783,24.099 3.783,24.907 C3.783,25.716 3.919,26.448 4.197,27.105 C4.472,27.760 4.845,28.319 5.315,28.782 C5.783,29.244 6.340,29.601 6.977,29.853 C7.615,30.106 8.294,30.231 9.021,30.231 C9.890,30.231 10.659,30.055 11.337,29.701 C12.009,29.347 12.608,28.846 13.129,28.196 L15.215,30.167 C14.445,31.090 13.543,31.793 12.499,32.277 C11.456,32.760 10.287,33.002 9.001,33.002 C7.840,33.002 6.763,32.793 5.771,32.374 C4.779,31.956 3.919,31.386 3.196,30.665 C2.473,29.944 1.898,29.088 1.480,28.100 C1.059,27.112 0.851,26.047 0.851,24.907 C0.851,23.768 1.059,22.703 1.480,21.714 C1.898,20.726 2.473,19.872 3.196,19.150 Z"/>
</g>
</svg>
