<svg id="Layer_1" data-name="Layer 1" xmlns="http://www.w3.org/2000/svg" viewBox="0 0 76.54 26.2"><defs><style>.cls-1{fill:#fff;}</style></defs><title>fetch</title><path class="cls-1" d="M11.13.88a4.53,4.53,0,0,0,1,.18,13,13,0,0,1,2,.55c.19.07.2.14.13.31-.54,1.22-1.07,2.44-1.59,3.67-.07.15-.13.18-.29.13a3.43,3.43,0,0,0-1.62-.13A1.79,1.79,0,0,0,9.32,7.22c0,.25,0,.52,0,.77s0,.37.34.37c1.12,0,2.24,0,3.36,0,.26,0,.32.08.32.33,0,1.24,0,2.49,0,3.73,0,.22-.05.3-.29.29-1.16,0-2.32,0-3.48,0-.26,0-.32.08-.32.33,0,3.8,0,7.6,0,11.39,0,.32-.07.41-.39.39a5.68,5.68,0,0,1-3.33-1.1,5.12,5.12,0,0,1-1.79-3.37,10.35,10.35,0,0,1-.12-1.76c0-1.85,0-3.71,0-5.56,0-.26-.07-.32-.32-.31L1,12.75V8.4a.56.56,0,0,1,.42-.09h1.8c.34,0,.36,0,.37-.37a9.34,9.34,0,0,1,.64-3.55A5.49,5.49,0,0,1,8.59,1c.31-.06.62,0,.92-.09h.25a3.47,3.47,0,0,0,.72,0c.13,0,.27,0,.4,0Z"/><path class="cls-1" d="M10.51.93C10.26.92,10,1,9.76.88h.74s0,0,0,0Z"/><path class="cls-1" d="M10.51.93V.88h.38C10.77,1,10.63.92,10.51.93Z"/><path class="cls-1" d="M59.07,13V7.84A8.65,8.65,0,0,1,59.53,5,5.43,5.43,0,0,1,64,1.26c.75-.14.75-.13.75.61V9.5c0,.09,0,.2.06.25S65,9.7,65,9.63a5,5,0,0,1,4.27-1.7,7.2,7.2,0,0,1,2.89.64,5.87,5.87,0,0,1,3.25,4.49,13.12,13.12,0,0,1,.11,2.26c0,3.08,0,6.17,0,9.25,0,.27,0,.35-.33.35-1.66,0-3.32,0-5,0-.26,0-.33-.07-.33-.33,0-3,0-6,0-9a2.58,2.58,0,0,0-3.46-2.49,2.44,2.44,0,0,0-1.17.71,2.11,2.11,0,0,0-.54,1.31q0,4.71,0,9.44c0,.24,0,.3-.31.27a5.62,5.62,0,0,1-5.16-4.76,10.94,10.94,0,0,1-.21-2.28c0-1.6,0-3.19,0-4.78Z"/><path class="cls-1" d="M38.39,16.07v2.67c0,1.35.76,1.92,2.09,1.56a2.23,2.23,0,0,0,.65-.29c.13-.08.19-.1.26.08.45,1.16.91,2.33,1.38,3.48.08.21,0,.26-.16.34a7.67,7.67,0,0,1-3.56,1.26,6.55,6.55,0,0,1-3.52-.52A4.66,4.66,0,0,1,33,21.29a10,10,0,0,1-.22-2.38V13.26c0-.45,0-.45-.44-.45h-2c-.2,0-.27,0-.27-.25,0-1.28,0-2.57,0-3.85,0-.2.06-.25.25-.24H32.5c.21,0,.28-.05.32-.26A5.75,5.75,0,0,1,35,4.56a7.56,7.56,0,0,1,2.42-1.18,2.38,2.38,0,0,1,.8,0c.22,0,.13.17.13.28,0,1.47,0,2.94,0,4.41,0,.3.08.37.37.37,1,0,2,0,3,0,.22,0,.32,0,.32.3,0,1.26,0,2.51,0,3.76,0,.23,0,.3-.29.3-1,0-2.07,0-3.1,0-.22,0-.28.06-.28.27C38.39,14,38.39,15.05,38.39,16.07Z"/><path class="cls-1" d="M56,13.48a7.21,7.21,0,0,0-2.34-.83,4,4,0,0,0-3.76,1.09,3.52,3.52,0,0,0-.85,1.7,5,5,0,0,0,.06,2.45,3.59,3.59,0,0,0,4.09,2.59,6.84,6.84,0,0,0,2.57-.77c.18-.1.25-.07.32.13.4,1.17.82,2.34,1.24,3.5a.27.27,0,0,1-.13.38A7.69,7.69,0,0,1,53.83,25a10,10,0,0,1-6-.76A7.88,7.88,0,0,1,43.37,18a8.86,8.86,0,0,1,.89-5.63,8,8,0,0,1,6-4.24,10.17,10.17,0,0,1,6,.67,6.4,6.4,0,0,1,.92.52c.09.06.15.11.1.25C56.85,10.88,56.4,12.17,56,13.48Z"/><path class="cls-1" d="M24.34,17.77h-5c-.28,0-.32.08-.27.34a3.24,3.24,0,0,0,3.16,2.8,7.11,7.11,0,0,0,4.58-1.12c.17-.11.23-.08.32.09.55,1.08,1.1,2.16,1.66,3.22.11.2.05.29-.1.41a8.92,8.92,0,0,1-3.64,1.58,10.86,10.86,0,0,1-6.52-.52,7.79,7.79,0,0,1-4.81-6.07,9.15,9.15,0,0,1,1-6.59,7.71,7.71,0,0,1,5.86-3.82,8.74,8.74,0,0,1,4.92.65,6.89,6.89,0,0,1,3.88,4.93,14.31,14.31,0,0,1,.24,3.86c0,.24-.14.25-.33.25Zm-.29-3.06c.14,0,.27,0,.24-.2a2.87,2.87,0,0,0-.73-1.74,2.61,2.61,0,0,0-3.87.36,4.46,4.46,0,0,0-.58,1.3c-.06.23,0,.29.22.28.78,0,1.57,0,2.36,0Z"/></svg>