<?xml version="1.0" encoding="utf-8"?>
<!-- Generator: Adobe Illustrator 22.1.0, SVG Export Plug-In . SVG Version: 6.00 Build 0)  -->
<svg version="1.1" id="Capa_1" xmlns="http://www.w3.org/2000/svg" xmlns:xlink="http://www.w3.org/1999/xlink" x="0px" y="0px"
	 viewBox="0 0 50 22" style="enable-background:new 0 0 50 22;" xml:space="preserve">
<style type="text/css">
	.st0{fill:#FFFFFF;}
</style>
<path class="st0" d="M23.6,19.6h-1.4v-8.4h1.4V19.6z M22.9,9.8c-0.5,0-0.9-0.4-0.9-0.9S22.4,8,22.9,8c0.5,0,0.9,0.4,0.9,0.9
	S23.4,9.8,22.9,9.8z M31.4,19.8c-3.7,0-6.1-2.7-6.1-6.9s2.4-6.9,6.1-6.9s6.1,2.7,6.1,6.9S35.1,19.8,31.4,19.8z M36.1,12.9
	c0-3.5-1.8-5.7-4.8-5.7s-4.8,2.2-4.8,5.7s1.8,5.7,4.8,5.7S36.1,16.4,36.1,12.9z M43.6,19.8c-2.8,0-4.8-1.5-4.9-3.8H40
	c0.1,1.6,1.6,2.7,3.7,2.7c2,0,3.4-1.1,3.4-2.6c0-1.3-0.8-2-2.9-2.4l-1.7-0.4c-2.4-0.6-3.6-1.7-3.6-3.4C39,7.5,41,6,43.5,6
	c2.6,0,4.5,1.5,4.5,3.6H47c-0.1-1.5-1.4-2.4-3.3-2.4c-1.8,0-3.2,1-3.2,2.5c0,1.1,0.8,1.8,2.8,2.3l1.5,0.3c2.7,0.7,3.8,1.7,3.8,3.6
	C48.4,18.2,46.6,19.8,43.6,19.8z M16.6,16.1c-0.3,0.6-0.6,1.3-1,1.7c-0.5,0.8-0.9,1.3-1.3,1.5c-0.5,0.5-1,0.7-1.6,0.7
	c-0.4,0-0.9-0.1-1.5-0.3c-0.6-0.2-1.1-0.3-1.6-0.3s-1,0.1-1.7,0.3c-0.6,0.2-1,0.3-1.5,0.3c-0.6,0-1.1-0.2-1.7-0.8
	c-0.3-0.3-0.8-0.8-1.3-1.6C2.9,17,2.4,16,2.1,15c-0.3-1-0.6-2.2-0.6-3.2c0-1.3,0.3-2.3,0.8-3.1c0.4-0.7,1-1.3,1.7-1.7
	c0.7-0.4,1.5-0.6,2.2-0.6c0.4,0,1,0.1,1.7,0.4s1.2,0.4,1.4,0.4c0.1,0,0.6-0.1,1.5-0.5c0.8-0.3,1.5-0.4,2.1-0.3
	c1.5,0.1,2.7,0.7,3.5,1.8c-1.4,0.8-2,2-2,3.5c0,1.2,0.4,2.2,1.3,2.9c0.3,0.3,0.8,0.6,1.3,0.8C16.8,15.6,16.7,15.9,16.6,16.1z
	 M13,2.2c0,0.9-0.3,1.7-1,2.6c-0.8,0.9-1.7,1.5-2.8,1.4c0-0.1,0-0.2,0-0.3c0-0.9,0.3-1.8,1-2.6c0.3-0.4,0.8-0.7,1.3-1s1-0.4,1.5-0.4
	C13,2,13,2.1,13,2.2L13,2.2z"/>
</svg>
