<svg
 xmlns="http://www.w3.org/2000/svg"
 xmlns:xlink="http://www.w3.org/1999/xlink"
 width="54px" height="28px">
<defs>
<filter id="Filter_0">
    <feFlood flood-color="rgb(255, 255, 255)" flood-opacity="1" result="floodOut" />
    <feComposite operator="atop" in="floodOut" in2="SourceGraphic" result="compOut" />
    <feBlend mode="normal" in="compOut" in2="SourceGraphic" />
</filter>

</defs>
<g filter="url(#Filter_0)">
<path fill-rule="evenodd"  fill="rgb(255, 255, 255)"
 d="M53.425,26.981 L53.372,26.793 C53.123,26.975 52.848,27.048 52.531,27.048 C51.719,27.048 51.351,26.510 51.351,25.625 C51.351,24.718 51.727,24.074 52.712,24.074 C52.929,24.074 53.102,24.107 53.284,24.195 L53.284,22.764 L53.921,22.684 L53.921,26.235 L53.975,26.981 L53.425,26.981 ZM53.284,24.665 C53.123,24.570 52.967,24.537 52.813,24.537 C52.324,24.537 52.007,24.812 52.007,25.591 C52.007,26.183 52.209,26.585 52.732,26.585 C52.948,26.585 53.117,26.518 53.284,26.377 L53.284,24.665 ZM49.494,27.048 C48.488,27.048 48.185,26.484 48.185,25.551 C48.185,24.564 48.641,24.074 49.627,24.074 C50.635,24.074 50.944,24.645 50.944,25.577 C50.944,26.564 50.489,27.048 49.494,27.048 ZM49.627,24.524 C49.024,24.524 48.837,24.899 48.837,25.598 C48.837,26.154 48.965,26.598 49.494,26.598 C50.112,26.598 50.293,26.229 50.293,25.524 C50.293,24.974 50.172,24.524 49.627,24.524 ZM44.224,19.017 C39.499,19.017 37.356,16.482 37.356,11.803 C37.356,7.102 39.731,4.638 44.246,4.638 C46.252,4.638 48.393,5.168 49.617,6.919 L47.611,8.762 C46.851,7.794 45.929,7.287 44.315,7.287 C41.412,7.287 40.490,8.970 40.490,11.827 C40.490,14.822 41.459,16.298 44.362,16.298 C45.261,16.298 46.205,16.113 46.691,15.928 L46.691,13.487 L44.063,13.487 L44.063,10.883 L49.662,10.883 L49.662,17.657 C48.510,18.464 46.390,19.017 44.224,19.017 ZM39.104,24.262 L38.908,24.726 C38.681,24.611 38.390,24.537 38.061,24.537 C37.660,24.537 37.485,24.665 37.485,24.853 C37.485,25.007 37.592,25.095 37.834,25.188 C37.980,25.248 38.297,25.344 38.499,25.416 C38.849,25.538 39.129,25.718 39.129,26.183 C39.129,26.767 38.673,27.048 37.909,27.048 C37.476,27.048 37.116,26.967 36.834,26.847 L37.029,26.383 C37.249,26.491 37.559,26.578 37.915,26.578 C38.250,26.578 38.512,26.510 38.512,26.242 C38.512,26.081 38.390,25.974 38.149,25.887 C37.929,25.812 37.672,25.739 37.476,25.665 C37.135,25.538 36.874,25.349 36.874,24.921 C36.874,24.316 37.411,24.074 38.061,24.074 C38.519,24.074 38.841,24.161 39.104,24.262 ZM27.057,4.845 L30.282,4.845 L30.282,16.090 L36.965,16.090 L36.965,18.810 L27.057,18.810 L27.057,4.845 ZM27.683,26.457 L29.469,26.457 L29.469,26.981 L27.031,26.981 L27.031,22.898 L27.683,22.898 L27.683,26.457 ZM11.573,22.868 C5.683,22.946 0.591,18.051 0.625,11.904 C0.656,5.867 5.556,0.973 11.590,0.970 C17.671,0.968 22.618,5.924 22.563,12.045 C22.510,18.236 17.386,22.960 11.573,22.868 ZM14.181,15.867 C13.436,15.867 12.729,15.867 11.965,15.867 C11.965,12.942 11.965,10.069 11.965,7.184 C11.691,7.184 11.472,7.184 11.217,7.184 C11.217,10.382 11.217,13.529 11.217,16.689 C12.219,16.689 13.194,16.689 14.181,16.689 C14.181,16.409 14.181,16.164 14.181,15.867 ZM20.736,11.604 C18.541,11.604 16.398,11.604 14.261,11.604 C14.261,11.860 14.261,12.078 14.261,12.359 C16.171,12.359 18.054,12.359 19.940,12.359 C19.808,16.330 16.549,20.176 11.729,20.270 C7.391,20.355 3.769,17.106 3.303,12.743 C3.075,10.609 3.619,8.658 4.917,6.950 C6.672,4.634 9.053,3.546 11.934,3.581 C12.063,2.803 12.016,2.741 11.305,2.808 C10.767,2.859 10.226,2.907 9.700,3.017 C5.155,3.962 1.907,8.312 2.566,13.165 C3.251,18.224 8.020,21.837 13.161,20.904 C16.839,20.235 19.264,18.000 20.394,14.413 C20.682,13.501 20.789,12.562 20.736,11.604 ZM9.385,8.436 C9.386,7.710 8.861,7.174 8.138,7.165 C7.385,7.155 6.822,7.690 6.815,8.420 C6.809,9.129 7.404,9.716 8.123,9.713 C8.815,9.710 9.381,9.137 9.385,8.436 ZM30.520,23.510 L29.876,23.510 L29.876,22.939 L30.520,22.939 L30.520,23.510 ZM30.520,26.981 L29.882,26.981 L29.882,24.142 L30.520,24.142 L30.520,26.981 ZM31.406,23.799 C31.406,22.945 31.876,22.684 32.534,22.684 C32.761,22.684 33.005,22.718 33.185,22.791 L33.044,23.248 C32.903,23.194 32.755,23.167 32.602,23.167 C32.198,23.167 32.043,23.356 32.043,23.799 L32.043,24.141 L33.029,24.141 L33.029,24.624 L32.051,24.624 L32.051,26.981 L31.412,26.981 L31.412,24.624 L30.996,24.624 L30.996,24.141 L31.406,24.141 L31.406,23.799 ZM34.583,24.074 C35.576,24.074 35.784,24.665 35.784,25.464 L35.784,25.718 L33.884,25.718 C33.898,26.323 34.132,26.578 34.696,26.578 C35.120,26.578 35.388,26.445 35.609,26.350 L35.745,26.760 C35.529,26.888 35.046,27.047 34.596,27.047 C33.581,27.047 33.225,26.551 33.225,25.544 C33.225,24.557 33.676,24.074 34.583,24.074 ZM35.126,25.276 C35.126,24.739 34.937,24.511 34.575,24.511 C34.084,24.511 33.910,24.772 33.890,25.276 L35.126,25.276 ZM36.767,22.725 C36.760,23.448 36.593,23.872 36.256,24.316 L35.854,24.060 C36.123,23.603 36.170,23.208 36.170,22.725 L36.767,22.725 ZM43.153,22.831 C43.729,22.831 44.240,23.013 44.555,23.396 L44.159,23.752 C43.931,23.510 43.615,23.342 43.159,23.342 C42.278,23.342 41.857,23.933 41.857,25.001 C41.857,25.988 42.278,26.524 43.126,26.524 C43.428,26.524 43.697,26.484 43.918,26.424 L43.918,25.329 L42.977,25.329 L42.977,24.826 L44.550,24.826 L44.550,26.773 C44.187,26.940 43.662,27.048 43.092,27.048 C41.776,27.041 41.192,26.309 41.192,24.940 C41.192,23.510 41.937,22.831 43.153,22.831 ZM46.472,24.074 C47.479,24.074 47.789,24.645 47.789,25.577 C47.789,26.564 47.331,27.048 46.338,27.048 C45.331,27.048 45.028,26.484 45.028,25.551 C45.028,24.564 45.486,24.074 46.472,24.074 ZM46.338,26.598 C46.956,26.598 47.137,26.229 47.137,25.524 C47.137,24.974 47.018,24.524 46.472,24.524 C45.870,24.524 45.679,24.899 45.679,25.598 C45.679,26.154 45.808,26.598 46.338,26.598 Z"/>
</g>
</svg>
