<?xml version="1.0" encoding="utf-8"?>
<!-- Generator: Adobe Illustrator 22.1.0, SVG Export Plug-In . SVG Version: 6.00 Build 0)  -->
<svg version="1.1" id="Capa_1" xmlns="http://www.w3.org/2000/svg" xmlns:xlink="http://www.w3.org/1999/xlink" x="0px" y="0px"
	 viewBox="0 0 652 170.1" style="enable-background:new 0 0 652 170.1;" xml:space="preserve">
<style type="text/css">
	.st0{fill:#FFFFFF;}
</style>
<g>
	<path class="st0" d="M165.9,102.4c0,0,0.4-7.1-9.2-7.6h-9.2v16.6h7.8C155.3,111.5,165.9,111.3,165.9,102.4"/>
	<path class="st0" d="M56.9,102.4c0,0,0.4-7.1-9.2-7.6h-9.2v16.6h7.8C46.4,111.5,56.9,111.3,56.9,102.4"/>
	<path class="st0" d="M2.3,161.5h94.5V72.3H2.3L2.3,161.5L2.3,161.5z M27.2,84.8h22.5c20.2,1.9,19,17.2,19,17.2
		c0.1,9.3-8.2,12.9-8.2,12.9c14.5,3.7,14,16,14,16c0,18.2-21.5,18.1-21.5,18.1H27.1L27.2,84.8L27.2,84.8z"/>
	<path class="st0" d="M171.6,129.9c0,0,0.4-8.5-12-8.4h-12.1V139h12C159.5,139,171.6,139.6,171.6,129.9"/>
	<path class="st0" d="M111.3,161.5h94.5V72.3h-94.5V161.5L111.3,161.5z M136.1,84.8h22.4c20.2,1.9,19,17.2,19,17.2
		c0.1,9.3-8.2,12.9-8.2,12.9c14.5,3.7,14,16,14,16c0,18.2-21.5,18.1-21.5,18.1h-25.7V84.8L136.1,84.8z"/>
	<path class="st0" d="M220.3,161.5h94.5V72.3h-94.5V161.5L220.3,161.5z M296.1,143.9c0,0-19.4,11.6-41.9,2.7c0,0-18.9-6.9-19.6-29.6
		c0,0-0.8-23.4,24.4-31.1c0,0,6.7-2.6,18.9-1.4c0,0,7.2,0.7,17.7,5.1v11.8c0,0-11.5-7.1-24.3-7.2c0,0-23.8-0.5-24.9,22.8
		c0,0-0.9,21.5,24.6,22.7c0,0,10.7,1.3,25.1-8L296.1,143.9L296.1,143.9z"/>
	<path class="st0" d="M62.6,129.9c0,0,0.4-8.5-12-8.4h-12V139h12C50.6,139,62.6,139.6,62.6,129.9"/>
	<path class="st0" d="M377.2,115.6v-0.2c0,0-8.4-3.3-8.4-14.5c0-11.8,9.5-17.4,20.9-17.4h3.9c2.5,0,3.9,1.4,3.9,3.9v2.3
		c0,2.5-1.4,3.8-3.9,3.8h-3.1c-6.1,0-9.6,4-9.6,8.9c0,3.8,2.1,8.8,10.1,8.8h10.5v-4.7c0-2.5,1.4-3.8,3.9-3.8h4c2.5,0,3.9,1,3.9,3.2
		v5.4h4.7c2.5,0,3.9,1.4,3.9,3.9v2.6c0,2.5-1.4,3.9-3.9,3.9h-4.7v7.8c0,13.5-8.9,22.5-23.9,22.5c-14.3,0-23.7-8.7-23.7-19.9
		C365.9,124.9,370.2,118,377.2,115.6 M389.5,140.9c7.6,0,12-4.1,12-12.1v-7.2h-11.2c-7.4,0-12.1,3.3-12.1,9.7
		C378.2,136.7,382.7,140.9,389.5,140.9"/>
	<path class="st0" d="M500.2,161.5l-2.2-0.3c-5.4-0.5-10.7-2.1-15.4-4.8c-5.4-3.2-9.3-8.4-10.9-14.5c-0.8-2.9-1.2-5.8-1.2-8.8
		c0-9.2,0-18.5,0-27.7c-0.1-0.9,0.6-1.8,1.5-1.9c0.1,0,0.2,0,0.3,0h19.8c0.3,0,0.6,0,0.9,0.1c0.8,0.3,1.3,1.1,1.2,1.9
		c0,2.5,0,5,0,7.5c0,7.9-0.1,15.8,0,23.7c-0.1,3.5,1.6,6.9,4.5,8.9c1.6,1,3.4,1.7,5.3,1.9c1.8,0.2,3.6,0.2,5.3-0.1
		c3.9-0.5,7.3-2.9,8.9-6.5c1-2.2,1.6-4.5,1.7-6.9c0.1-2.1,0.2-4.2,0.2-6.3c0-14.3,0-28.6,0-42.9c-0.1-2.2,1.2-4.3,3.2-5.2
		c0.6-0.3,1.2-0.6,1.9-0.7c1.4-0.3,2.9-0.5,4.4-0.7c3-0.3,6.1-0.1,9,0.8c0.9,0.3,1.7,0.6,2.4,1.1c1.6,1,2.5,2.8,2.5,4.7
		c0,6,0,12.1,0,18.2v0.6h18c0.3,0,0.5,0,0.8,0c0.9,0,1.6,0.7,1.6,1.6c0,0,0,0.1,0,0.1c0,1.3,0,2.6,0,3.8v7c0,0.2,0,0.4,0,0.6
		c0.1,0.8-0.5,1.6-1.4,1.7c-0.1,0-0.2,0-0.3,0H556c-1.8,0-3.5,0-5.3,0c-2.3,0-4.5-0.4-6.6-1.1l-0.3-0.1h-0.1c0,0.1,0,0.2,0,0.3
		c0,4.1,0,8.2,0,12.3c0,2.9,0.5,5.7,1.6,8.4c1.8,4.4,5.6,7.6,10.3,8.6c2.6,0.6,5.3,0.9,8,0.7c2.7-0.1,5.3-0.7,7.8-1.7
		c5-2.1,8.6-5.5,10.1-10.8c1.1-3.9,0.8-8-0.8-11.7c-0.5-1.2-1.2-2.4-1.8-3.5c-0.5-1-1.2-2-1.7-3.1c-1.3-2.6-0.8-5.7,1.3-7.7
		c3.1-3.4,7.2-5.6,11.7-6.3c1.2-0.3,2.4-0.3,3.7-0.1c1.8,0.3,3.3,1.4,4.2,2.9c2.4,3.9,4.9,7.7,7.1,11.6c4.6,8,9.1,16.1,13.6,24.2
		l0.4,0.8c0.1-0.2,0.2-0.3,0.3-0.5c3.2-6,6-12.1,8.5-18.4c2.5-6.1,4.7-12.4,6.6-18.7c0.2-1.1,1.2-2,2.4-1.8c0.2,0,0.4,0.1,0.5,0.1
		c2.2,0.6,4.4,1.3,6.5,2l3.9,1.2l0.3,0.1c0.9,0.2,1.5,1,1.4,2c0,0.1-0.1,0.3-0.1,0.4c-0.4,1.4-0.8,2.7-1.3,4
		c-5.4,14.6-12.2,28.6-20.4,41.7c-0.7,1.2-1.5,2.2-2.4,3.3c-1.8,2-4.3,3.4-7,3.8l-2.2,0.4h-4.7c-0.2,0-0.3-0.1-0.5-0.1
		c-3.8-0.2-7.1-2.3-9-5.6c-2.5-3.8-5-7.6-7.6-11.4l-0.3-0.4c0,0-0.1,0.1-0.1,0.1c-3.8,6.2-9.5,11-16.2,13.9
		c-4.4,1.9-9.1,3.1-13.9,3.4c-0.6,0-1.2,0.1-1.7,0.2h-4.7l-0.7-0.1c-1.4-0.1-2.8-0.2-4.2-0.4c-2.5-0.3-5-0.8-7.5-1.4
		c-3.7-1-7.2-2.5-10.4-4.4c-1.3-0.8-2.4-1.7-3.7-2.6c-0.6,0.5-1.2,0.9-1.9,1.4c-3.3,2.3-6.9,4.1-10.7,5.4c-2.6,0.9-5.4,1.5-8.1,1.8
		l-2,0.3L500.2,161.5L500.2,161.5z"/>
	<path class="st0" d="M470.4,83.5c0.1-0.8,0.2-1.5,0.3-2.3c0.8-4.6,4.4-8.3,9.1-9.1c2.3-0.4,4.6-0.3,6.8,0.4c3,0.9,5.5,3.1,6.7,6
		c1.3,2.9,1.5,6.1,0.6,9.1c-0.9,3.4-3.6,6.1-6.9,7.1c-3.9,1.4-8.3,0.9-11.7-1.5c-2.4-1.7-4-4.2-4.4-7.1c-0.1-0.8-0.2-1.6-0.3-2.4
		L470.4,83.5L470.4,83.5z"/>
</g>
<g>
	<path class="st0" d="M261.5,11.8c0-1.2,0.6-1.9,1.8-1.9h9.3c5.6,0,9.7,2.9,9.7,8c0,2.9-1.4,5.4-3.8,6.7v0.1c3.4,1,5,4.2,5,7.4
		c0,6.3-5,9.1-10.8,9.1h-9.5c-1.2,0-1.8-0.6-1.8-1.9L261.5,11.8L261.5,11.8z M272.7,22.8c2.5,0,3.8-1.8,3.8-4c0-2.3-1.3-3.9-4-3.9
		h-5.4v7.9L272.7,22.8L272.7,22.8z M273.2,36.4c2.9,0,4.5-1.9,4.5-4.5c0-2.6-1.7-4.5-4.5-4.5h-6.1v9H273.2L273.2,36.4z"/>
	<path class="st0" d="M301.5,28.2l-9.2-16c-0.8-1.2-0.2-2.2,1.2-2.2h2.5c0.9,0,1.8,0.5,2.1,1.4l4.2,7.9c1,1.9,1.9,4.2,1.9,4.2h0.1
		c0,0,0.9-2.2,1.9-4.2l4.2-7.9c0.3-0.9,1.2-1.4,2.1-1.4h2.5c1.5,0,2,1,1.3,2.2l-9.2,16v11.2c0,1.2-0.6,1.9-1.8,1.9h-2
		c-1.2,0-1.9-0.6-1.9-1.9L301.5,28.2L301.5,28.2z"/>
	<path class="st0" d="M19,9.1c3.7-0.1,7.3,1.1,10.3,3.2c0.9,0.7,1,1.6,0.4,2.6l-0.8,1.3c-0.6,1-1.5,1.1-2.5,0.4
		c-2.1-1.4-4.6-2.2-7.1-2.2c-6.9,0-10.6,5-10.6,10.9c0,5.9,3.8,11.3,10.6,11.3c3.6,0,6.3-1.7,7.8-2.8c1-0.7,1.9-0.7,2.6,0.3l0.9,1.2
		c0.6,0.7,0.6,1.8-0.1,2.4c-0.1,0.1-0.1,0.1-0.2,0.1c-3.2,2.6-7.1,3.9-11.2,3.9c-9.9,0-16.3-7.2-16.3-16.5C2.7,16.2,9.4,9.1,19,9.1
		L19,9.1z"/>
	<path class="st0" d="M53.4,24.5c3.1,0,5-1.9,5-5c0-2-0.8-3.6-2.5-4.3c-0.8-0.4-1.7-0.5-3.4-0.5h-4.2v9.9H53.4L53.4,24.5z
		 M42.6,11.5c0-1.2,0.6-1.9,1.8-1.9h8.6c3.1,0,4.7,0.3,6,0.8c3.2,1.3,5.3,4.4,5.3,8.6c0,3.7-2,7.3-5.3,8.6v0.1
		c0.4,0.5,0.7,1.1,1,1.6l5.2,9.5c0.8,1.3,0.2,2.2-1.3,2.2h-2.4c-0.9,0.1-1.8-0.5-2.2-1.3l-5.6-10.5h-5.5v9.9c0,1.2-0.6,1.9-1.8,1.9
		h-2c-1.2,0-1.8-0.6-1.8-1.9L42.6,11.5L42.6,11.5z"/>
	<path class="st0" d="M77.1,11.5c0-1.2,0.6-1.9,1.8-1.9h15.2c1.2,0,1.9,0.7,1.9,1.9v1.2c0,1.2-0.7,1.8-1.9,1.8H82.8v8.3h8.8
		c1.2,0,1.9,0.6,1.9,1.8v1.2c0,1.2-0.7,1.9-1.9,1.9h-8.8v8.5h12.1c1.2,0,1.9,0.6,1.9,1.8v1.2c0,1.2-0.7,1.9-1.9,1.9H79
		c-1.2,0-1.8-0.6-1.8-1.9L77.1,11.5L77.1,11.5z"/>
	<path class="st0" d="M123.2,28.5l-2.8-8.5c-0.5-1.8-1.2-4.9-1.2-4.9H119c0,0-0.7,3.1-1.2,4.9l-2.9,8.5H123.2L123.2,28.5z
		 M115.6,11.2c0.2-0.9,1.1-1.6,2.1-1.5h2.8c1-0.1,1.9,0.6,2.1,1.5l9.9,28c0.4,1.3-0.1,2.1-1.5,2.1h-2c-1,0.1-1.9-0.6-2.1-1.5
		l-2.2-6.6h-11.1l-2.2,6.5c-0.2,1-1.1,1.6-2.1,1.6h-2c-1.4,0-2-0.8-1.5-2.1L115.6,11.2L115.6,11.2z"/>
	<path class="st0" d="M147.7,14.6h-8.5c-1.2,0-1.9-0.6-1.9-1.8v-1.2c0-1.2,0.6-1.9,1.9-1.9h22.7c1.2,0,1.8,0.7,1.8,1.9v1.2
		c0,1.2-0.6,1.8-1.8,1.8h-8.5v24.8c0,1.2-0.6,1.9-1.9,1.9h-2c-1.2,0-1.8-0.6-1.8-1.9L147.7,14.6L147.7,14.6z"/>
	<path class="st0" d="M174.3,11.5c0-1.2,0.6-1.9,1.8-1.9h15.2c1.2,0,1.9,0.7,1.9,1.9v1.2c0,1.2-0.7,1.8-1.9,1.8H180v8.3h8.8
		c1.2,0,1.9,0.6,1.9,1.8v1.2c0,1.2-0.7,1.9-1.9,1.9H180v8.5h12.1c1.2,0,1.9,0.6,1.9,1.8v1.2c0,1.2-0.7,1.9-1.9,1.9h-16
		c-1.2,0-1.8-0.6-1.8-1.9V11.5L174.3,11.5z"/>
	<path class="st0" d="M216.7,36.3c6.4,0,10.5-3.8,10.5-10.9c0-7-4.2-10.8-10.5-10.8h-4.8v21.7H216.7L216.7,36.3z M206.2,11.5
		c0-1.2,0.6-1.9,1.8-1.9h8.9c9.8,0,16.1,5.8,16.1,15.8c0,10-6.4,15.9-16.1,15.9H208c-1.2,0-1.8-0.6-1.8-1.9V11.5L206.2,11.5z"/>
</g>
</svg>
