<?xml version="1.0" encoding="utf-8"?>
<!-- Generator: Adobe Illustrator 22.1.0, SVG Export Plug-In . SVG Version: 6.00 Build 0)  -->
<svg version="1.1" id="Layer_1" xmlns="http://www.w3.org/2000/svg" xmlns:xlink="http://www.w3.org/1999/xlink" x="0px" y="0px"
	 viewBox="0 0 1459.8 609.4" style="enable-background:new 0 0 1459.8 609.4;" xml:space="preserve">
<style type="text/css">
	.st0{fill:#FFFFFF;}
	.st1{fill:#4BA0B8;}
	.st2{clip-path:url(#SVGID_2_);fill:#4BA0B8;}
	.st3{fill:#D2525D;}
</style>
<polygon class="st0" points="4.8,447.1 1455,447.1 1455,456.7 4.8,456.7 4.8,447.1 "/>
<path class="st1" d="M328.6,159.7v-36.5h-29.8c-6.2,0-11.3,5.1-11.3,11.3v246.9h41.6V248.7c2.6-47,41.2-84.3,87.9-85l13.3-0.2v-40.4
	l-14,0.1C383.9,123.7,352.8,136.6,328.6,159.7"/>
<path class="st1" d="M624.5,326c-7.8-4.9-13.6-12.5-16.2-21.3c-1.9-6-1.9-12.1-1.9-18.5V164.1h75.3V123h-75.3V12.7h-29.8
	c-6.2,0-11.3,5.1-11.3,11.3v99.1H520v41.1h45.2v130.5c0,4.5,1.1,44.7,38.1,66.7c28.5,17,61.6,24.6,63,25l13,3l9.1-40.1l-13-3
	C674.3,346,646.4,339.4,624.5,326"/>
<polygon class="st1" points="446,33.4 475.1,4.4 504.1,33.4 475.1,62.5 446,33.4 "/>
<g>
	<defs>
		<rect id="SVGID_1_" x="4.4" y="4.4" width="1451" height="598.7"/>
	</defs>
	<clipPath id="SVGID_2_">
		<use xlink:href="#SVGID_1_"  style="overflow:visible;"/>
	</clipPath>
	<path class="st2" d="M465.8,123.1c-6.2,0-11.3,5.1-11.3,11.3l0,246.9h41.1V123.1H465.8L465.8,123.1z"/>
	<path class="st2" d="M134.4,340.3c-48.3,0-87.6-39.5-87.6-88s39.3-88,87.6-88c48.3,0,87.6,39.5,87.6,88S182.8,340.3,134.4,340.3
		 M134.4,123.1c-25.3,0-47.9,9-69.9,17.8c-3.2,1.3-6.4,2.5-9.5,3.8l-9.5,3.7c0-18.5,0-135.8,0-135.8H15.7C9.4,12.7,4.4,17.7,4.4,24
		l0,0c0,2.7,0,219.5,0,226.4c0,21.2,4.4,40.8,13,58.3c22.1,44.4,67.4,72.5,116.9,72.7c71,0,128.7-57.9,128.7-129.1
		S205.4,123.1,134.4,123.1"/>
</g>
<path class="st3" d="M1118.5,340.6c-48.8,0-88.3-39.5-88.3-88.3s39.5-88.3,88.3-88.3s88.3,39.5,88.3,88.3
	C1206.7,301.1,1167.2,340.5,1118.5,340.6 M1118.5,123.2c-71.3,0-129.1,57.8-129.1,129.1c0,71.3,57.8,129.1,129.1,129.1
	c71.3,0,129.1-57.8,129.1-129.1v0C1247.6,181,1189.8,123.2,1118.5,123.2"/>
<path class="st3" d="M836.2,340.2c-48.3,0-87.6-39.4-87.6-88s39.3-88,87.6-88c48.3,0,87.6,39.5,87.6,88S884.5,340.2,836.2,340.2
	 M836.2,123.1c-25.3,0-47.9,9-69.9,17.8c-3.2,1.3-6.4,2.5-9.5,3.8l-9.5,3.7c0-18.5,0-135.6,0-135.6h-29.8c-6.2,0-11.2,5-11.3,11.1
	c0,0,0,0,0,0.1c0,2.7,0,219.5,0,226.4c0,21.2,4.4,40.8,13,58.3c22.1,44.4,67.4,72.5,116.9,72.7c71,0,128.7-57.9,128.7-129.1
	S907.1,123.1,836.2,123.1"/>
<polygon class="st3" points="1455.4,143.7 1422.8,119.3 1348.6,218.3 1274.5,119.3 1241.9,143.7 1323.2,252.3 1241.9,361 
	1274.5,385.4 1348.6,286.3 1422.8,385.4 1455.4,361 1374.1,252.3 1455.4,143.7 "/>
<path class="st0" d="M940.6,540.5c0,0,0.4-7.5-9.7-8h-9.7v17.6h8.3C929.5,550.1,940.6,549.9,940.6,540.5"/>
<path class="st0" d="M825.3,540.5c0,0,0.4-7.5-9.7-8h-9.7v17.6h8.3C814.2,550.1,825.3,549.9,825.3,540.5"/>
<path class="st0" d="M767.6,603h100v-94.4h-100L767.6,603L767.6,603z M793.9,521.9h23.8c21.4,2,20.1,18.2,20.1,18.2
	c0.1,9.9-8.7,13.6-8.7,13.6c15.3,3.9,14.8,16.9,14.8,16.9c0,19.2-22.8,19.1-22.8,19.1h-27.2L793.9,521.9L793.9,521.9z"/>
<path class="st0" d="M946.7,569.6c0,0,0.4-9-12.7-8.9h-12.8v18.5h12.7C933.9,579.3,946.7,579.9,946.7,569.6"/>
<path class="st0" d="M882.9,603h100v-94.4h-100V603L882.9,603z M909.1,521.9h23.8c21.4,2,20.1,18.2,20.1,18.2
	c0.1,9.9-8.7,13.6-8.7,13.6c15.3,3.9,14.8,16.9,14.8,16.9c0,19.2-22.7,19.1-22.7,19.1h-27.2V521.9L909.1,521.9z"/>
<path class="st0" d="M998.2,603.1h100v-94.4h-100V603.1L998.2,603.1z M1078.4,584.4c0,0-20.6,12.2-44.4,2.8c0,0-20-7.3-20.8-31.4
	c0,0-0.8-24.7,25.9-32.9c0,0,7.1-2.7,20-1.5c0,0,7.7,0.8,18.7,5.4v12.5c0,0-12.2-7.5-25.7-7.7c0,0-25.2-0.5-26.3,24.2
	c0,0-0.9,22.7,26,24c0,0,11.3,1.4,26.6-8.4L1078.4,584.4L1078.4,584.4z"/>
<path class="st0" d="M831.4,569.6c0,0,0.4-9-12.7-8.9h-12.7v18.5h12.7C818.6,579.3,831.4,579.9,831.4,569.6"/>
<path class="st0" d="M1164.3,554.4v-0.2c0,0-8.9-3.5-8.9-15.3c0-12.4,10-18.5,22.1-18.5h4.2c2.7,0,4.1,1.5,4.1,4.1v2.5
	c0,2.7-1.5,4-4.1,4h-3.3c-6.4,0-10.2,4.2-10.2,9.4c0,4,2.3,9.3,10.7,9.3h11.2v-5c0-2.7,1.5-4,4.2-4h4.2c2.7,0,4.2,1.1,4.2,3.4v5.7
	h4.9c2.7,0,4.1,1.5,4.1,4.1v2.8c0,2.7-1.5,4.1-4.1,4.1h-4.9v8.3c0,14.3-9.4,23.8-25.3,23.8c-15.1,0-25-9.2-25-21
	C1152.3,564.3,1156.8,557,1164.3,554.4 M1177.3,581.3c8,0,12.7-4.3,12.7-12.8v-7.6h-11.9c-7.8,0-12.8,3.5-12.8,10.3
	C1165.3,576.7,1170.1,581.3,1177.3,581.3"/>
<path class="st0" d="M1294.4,603l-2.3-0.3c-5.7-0.5-11.3-2.2-16.2-5.1c-5.7-3.4-9.9-8.9-11.5-15.3c-0.9-3-1.3-6.2-1.3-9.3
	c0-9.8,0-19.6,0-29.3c-0.1-1,0.6-1.9,1.6-2c0.1,0,0.2,0,0.3,0h21c0.3,0,0.7,0,1,0.1c0.8,0.3,1.3,1.1,1.2,2c0,2.7,0,5.3,0,7.9
	c0,8.4-0.1,16.7,0,25.1c-0.1,3.7,1.7,7.3,4.8,9.4c1.7,1.1,3.6,1.8,5.6,2c1.9,0.2,3.8,0.2,5.6-0.1c4.1-0.5,7.7-3.1,9.4-6.9
	c1.1-2.3,1.7-4.8,1.8-7.3c0.1-2.2,0.2-4.5,0.2-6.7c0-15.1,0-30.3,0-45.4c-0.1-2.4,1.2-4.6,3.4-5.5c0.6-0.3,1.3-0.6,2-0.8
	c1.5-0.3,3.1-0.6,4.6-0.7c3.2-0.3,6.4-0.1,9.6,0.8c0.9,0.3,1.8,0.7,2.6,1.2c1.7,1.1,2.7,3,2.6,5c0,6.4,0,12.8,0,19.2v0.6h19.1
	c0.3,0,0.5,0,0.8,0c0.9,0,1.7,0.8,1.6,1.7c0,0,0,0.1,0,0.1c0,1.4,0,2.7,0,4v7.4c0,0.2,0,0.4,0,0.6c0.1,0.9-0.6,1.7-1.4,1.8
	c-0.1,0-0.2,0-0.4,0h-6.6c-1.9,0-3.7,0-5.6,0c-2.4,0-4.8-0.4-7-1.2l-0.4-0.1h-0.1c0,0.1,0,0.2,0,0.3c0,4.4,0,8.7,0,13
	c0,3,0.6,6.1,1.7,8.9c1.9,4.6,6,8,10.9,9.1c2.8,0.7,5.6,0.9,8.4,0.7c2.8-0.1,5.6-0.7,8.2-1.8c5.3-2.2,9.1-5.8,10.7-11.5
	c1.1-4.1,0.8-8.5-0.8-12.4c-0.6-1.3-1.2-2.5-1.9-3.7c-0.6-1.1-1.3-2.1-1.8-3.2c-1.4-2.7-0.8-6.1,1.4-8.2c3.3-3.5,7.6-5.9,12.4-6.7
	c1.3-0.3,2.6-0.3,3.9-0.1c1.9,0.4,3.5,1.5,4.4,3.1c2.6,4.1,5.2,8.1,7.6,12.3c4.9,8.5,9.6,17.1,14.4,25.6l0.5,0.8
	c0.1-0.2,0.2-0.3,0.3-0.5c3.4-6.3,6.4-12.8,9-19.5c2.6-6.5,5-13.1,7-19.8c0.2-1.2,1.3-2.1,2.5-1.9c0.2,0,0.4,0.1,0.6,0.2
	c2.3,0.6,4.6,1.4,6.9,2.1l4.1,1.3l0.4,0.1c1,0.2,1.6,1.1,1.4,2.1c0,0.1-0.1,0.3-0.1,0.4c-0.4,1.4-0.9,2.8-1.4,4.2
	c-5.7,15.4-12.9,30.2-21.6,44.2c-0.8,1.2-1.6,2.4-2.6,3.5c-1.9,2.2-4.6,3.6-7.4,4l-2.3,0.4h-4.9c-0.2,0-0.3-0.1-0.5-0.1
	c-4-0.2-7.5-2.5-9.5-5.9c-2.7-4-5.3-8.1-8-12.1l-0.3-0.5c0,0-0.1,0.1-0.1,0.1c-4.1,6.6-10.1,11.7-17.2,14.7c-4.7,2-9.6,3.2-14.7,3.6
	c-0.6,0-1.2,0.1-1.8,0.2h-5l-0.8-0.1c-1.5-0.1-3-0.2-4.4-0.4c-2.7-0.3-5.3-0.8-7.9-1.5c-3.9-1-7.6-2.6-11-4.7
	c-1.3-0.8-2.6-1.8-3.9-2.7c-0.6,0.5-1.3,1-2,1.5c-3.4,2.5-7.3,4.4-11.3,5.7c-2.8,0.9-5.7,1.6-8.6,1.9l-2.2,0.3L1294.4,603
	L1294.4,603z"/>
<path class="st0" d="M1262.9,520.5c0.1-0.8,0.2-1.6,0.3-2.4c0.8-4.9,4.7-8.8,9.6-9.6c2.4-0.5,4.9-0.3,7.2,0.4
	c3.2,0.9,5.8,3.3,7.1,6.4c1.3,3,1.6,6.5,0.6,9.7c-1,3.6-3.8,6.4-7.3,7.5c-4.1,1.5-8.8,0.9-12.4-1.6c-2.5-1.8-4.2-4.5-4.7-7.5
	c-0.1-0.8-0.2-1.7-0.3-2.5L1262.9,520.5L1262.9,520.5z"/>
<path class="st0" d="M584.2,527.1c0-2.7,1.4-4.1,4-4.1h20.8c12.6,0,21.6,6.5,21.6,17.9c0,6.5-3.1,12.1-8.5,14.9v0.2
	c7.6,2.3,11.2,9.3,11.2,16.4c0,14-11.1,20.3-24.1,20.3h-21.2c-2.7,0-4-1.4-4-4.1L584.2,527.1L584.2,527.1z M609.2,551.4
	c5.5,0,8.6-3.9,8.6-9c0-5-3-8.7-8.8-8.7h-12.1v17.6L609.2,551.4L609.2,551.4z M610.3,581.8c6.5,0,10.1-4.2,10.1-10.1
	c0-5.9-3.7-10-10.1-10h-13.6v20.1H610.3L610.3,581.8z"/>
<path class="st0" d="M673.3,563.5l-20.4-35.7c-1.7-2.8-0.4-4.9,2.8-4.9h5.5c2.1-0.1,4,1.1,4.7,3.1l9.4,17.5c2.2,4.3,4.2,9.3,4.2,9.3
	h0.2c0,0,2.1-5,4.2-9.3l9.4-17.5c0.8-1.9,2.7-3.2,4.7-3.1h5.5c3.2,0,4.4,2.2,2.8,4.9l-20.5,35.7v25.1c0,2.8-1.4,4.1-4,4.1h-4.5
	c-2.8,0-4.1-1.4-4.1-4.1L673.3,563.5L673.3,563.5z"/>
<path class="st0" d="M43.6,521c8.2-0.1,16.3,2.3,23.1,7c2.1,1.6,2.2,3.6,0.8,5.8l-1.8,2.9c-1.4,2.3-3.3,2.5-5.7,1
	c-4.7-3.2-10.2-4.9-15.9-5c-15.4,0-23.6,11.2-23.6,24.2c0,13.2,8.5,25.2,23.7,25.2c8,0,14-3.8,17.3-6.2c2.2-1.6,4.2-1.6,5.8,0.7
	l2,2.7c1.4,1.6,1.3,4-0.2,5.5c-0.1,0.1-0.2,0.2-0.4,0.3c-7.1,5.7-15.9,8.8-24.9,8.8c-22.1,0-36.4-15.9-36.4-36.7
	C7.2,536.7,22.2,521,43.6,521L43.6,521z"/>
<path class="st0" d="M120.4,555.3c6.8,0,11.1-4.3,11.1-11.2c0-4.5-1.7-8-5.6-9.6c-1.7-0.8-3.9-1.2-7.6-1.2h-9.4v22H120.4
	L120.4,555.3z M96.2,526.4c0-2.7,1.4-4.2,4.1-4.2h19.1c7,0,10.4,0.6,13.4,1.9c7.1,3,11.8,9.7,11.8,19.3c0,8.3-4.4,16.3-11.7,19.3
	v0.2c0.9,1.2,1.6,2.4,2.3,3.7l11.6,21.2c1.7,2.9,0.4,5-2.9,5h-5.4c-2.1,0.1-4-1-4.9-2.9l-12.4-23.4h-12.3v22.1
	c0,2.8-1.4,4.2-4.1,4.2h-4.6c-2.7,0-4.1-1.4-4.1-4.2L96.2,526.4L96.2,526.4z"/>
<path class="st0" d="M173.2,526.4c0-2.7,1.4-4.2,4.1-4.2h34c2.7,0,4.2,1.5,4.2,4.2v2.8c0,2.7-1.5,4.1-4.2,4.1h-25.3v18.5h19.7
	c2.7,0,4.2,1.4,4.2,4.1v2.8c0,2.8-1.5,4.2-4.2,4.2h-19.7v18.9h26.9c2.7,0,4.2,1.4,4.2,4.1v2.8c0,2.8-1.5,4.2-4.2,4.2h-35.6
	c-2.7,0-4.1-1.4-4.1-4.2L173.2,526.4L173.2,526.4z"/>
<path class="st0" d="M275.8,564.2l-6.3-18.9c-1.2-4-2.8-11-2.8-11h-0.2c0,0-1.6,7-2.8,11l-6.4,18.9H275.8L275.8,564.2z M258.9,525.6
	c0.5-2.1,2.5-3.5,4.7-3.4h6.3c2.2-0.2,4.2,1.3,4.7,3.4l22.1,62.4c1,2.9-0.3,4.8-3.4,4.8h-4.6c-2.2,0.2-4.2-1.3-4.7-3.4l-5-14.7
	h-24.7l-4.9,14.6c-0.5,2.2-2.5,3.7-4.7,3.5h-4.6c-3.1,0-4.4-1.9-3.4-4.8L258.9,525.6L258.9,525.6z"/>
<path class="st0" d="M330.4,533.2h-18.9c-2.8,0-4.2-1.4-4.2-4.1v-2.8c0-2.7,1.4-4.2,4.2-4.2h50.6c2.7,0,4.1,1.5,4.1,4.2v2.8
	c0,2.7-1.4,4.1-4.1,4.1h-18.9v55.3c0,2.8-1.4,4.2-4.2,4.2h-4.5c-2.7,0-4.1-1.4-4.1-4.2L330.4,533.2L330.4,533.2z"/>
<path class="st0" d="M389.8,526.4c0-2.7,1.4-4.2,4.1-4.2h34c2.7,0,4.2,1.5,4.2,4.2v2.8c0,2.7-1.5,4.1-4.2,4.1h-25.3v18.5h19.7
	c2.7,0,4.2,1.4,4.2,4.1v2.8c0,2.8-1.5,4.2-4.2,4.2h-19.7v18.9h26.9c2.7,0,4.2,1.4,4.2,4.1v2.8c0,2.8-1.5,4.2-4.2,4.2h-35.6
	c-2.7,0-4.1-1.4-4.1-4.2V526.4L389.8,526.4z"/>
<path class="st0" d="M484.3,581.7c14.3,0,23.4-8.4,23.4-24.3c0-15.7-9.3-24.1-23.4-24.1h-10.6v48.5H484.3L484.3,581.7z M460.9,526.4
	c0-2.7,1.4-4.2,4.1-4.2h19.9c21.7,0,35.9,12.9,35.9,35.2c0,22.2-14.2,35.4-35.9,35.4H465c-2.7,0-4.1-1.4-4.1-4.2V526.4L460.9,526.4z
	"/>
</svg>
