<svg id="Layer_1" data-name="Layer 1" xmlns="http://www.w3.org/2000/svg" viewBox="0 0 90.71 26.2"><defs><style>.cls-1{fill:#fff;}</style></defs><title>Telstra</title><path class="cls-1" d="M22.28.73c-.21,1.11-.4,2.24-.62,3.35A1.38,1.38,0,0,1,20.18,5.3h-3.5c-.3,0-.42.08-.47.39-.49,3-1,6-1.49,9.05-.13.76-.26,1.52-.4,2.28a1.43,1.43,0,0,1-1.6,1.34c-1.27,0-2.54,0-3.82,0-.13,0-.26,0-.47,0l2.39-13H5.35c.16-.88.3-1.7.45-2.52a3.89,3.89,0,0,0,.09-.47A1.63,1.63,0,0,1,7.3.73Z"/><path class="cls-1" d="M42.38.73,40.7,10.25Q40,14,39.36,17.85c0,.14-.06.28-.09.44H34.4c.12-.74.24-1.45.37-2.17L36.93,3.88c.19-1,.38-2.1.56-3.15Z"/><path class="cls-1" d="M85.11,6.18c.09-.45.15-.79.24-1.13,0-.08.14-.21.21-.21,1.38,0,2.76,0,4.21,0-.1.61-.19,1.18-.29,1.75q-1,5.7-2,11.39c0,.12-.16.32-.25.32-1.3,0-2.6,0-3.94,0l.2-1.35a.92.92,0,0,0-.16.12,4.73,4.73,0,0,1-7.85-1.47,8.28,8.28,0,0,1-.22-5.8,7.1,7.1,0,0,1,2.82-4.14,5.89,5.89,0,0,1,5.07-.85A3.6,3.6,0,0,1,85.11,6.18ZM82.24,8.84a2.2,2.2,0,0,0-2,1.05,3.69,3.69,0,0,0-.5,2.8,1.93,1.93,0,0,0,1.43,1.65,2.13,2.13,0,0,0,2.14-.66,3.55,3.55,0,0,0,.6-3.69A1.86,1.86,0,0,0,82.24,8.84Z"/><path class="cls-1" d="M32.36,15.77a5.39,5.39,0,0,1-3.15,2.51,8.37,8.37,0,0,1-4.73.07,5.9,5.9,0,0,1-4.38-5.54A8.31,8.31,0,0,1,22,7.07a7,7,0,0,1,4.93-2.52A7,7,0,0,1,30.37,5a5.44,5.44,0,0,1,3.44,5c0,.9-.09,1.8-.14,2.74H24.92a1.79,1.79,0,0,0,.89,1.8c1,.52,2,.26,3.15-.86Zm-7.13-5.63h3.94a1.51,1.51,0,0,0-1.24-1.76A2.23,2.23,0,0,0,25.23,10.14Z"/><path class="cls-1" d="M54.24,8.39,50,9.27c-.08-.14-.14-.27-.21-.4a1.68,1.68,0,0,0-2.13-.77A.88.88,0,0,0,47,9a.75.75,0,0,0,.65.73c1,.23,1.9.42,2.85.66a5.77,5.77,0,0,1,1.14.42c2.17,1.08,2.15,3.47,1.48,5A4.13,4.13,0,0,1,50.83,18a8.18,8.18,0,0,1-6.89-.21,3.85,3.85,0,0,1-2.22-3.19l4.19-.91L46,14a1.91,1.91,0,0,0,2.41,1.09.86.86,0,0,0,.63-.81.75.75,0,0,0-.58-.79c-.82-.22-1.65-.4-2.48-.61-.3-.08-.6-.16-.89-.26-2.18-.8-2.84-2.46-2.21-4.59a4.31,4.31,0,0,1,2.16-2.59,7.45,7.45,0,0,1,6.74-.26A4.08,4.08,0,0,1,54.24,8.39Z"/><path class="cls-1" d="M64.33,4.8c-.23,1.29-.43,2.49-.66,3.68,0,.09-.23.21-.35.21-.76,0-1.52,0-2.28,0-.32,0-.41.12-.45.41-.13.9-.27,1.79-.43,2.69-.3,1.68.44,2.54,2.16,2.46h.35l-.3,1.82c-.11.6-.23,1.2-.31,1.8-.05.29-.15.43-.47.47A7.32,7.32,0,0,1,58.27,18a4.56,4.56,0,0,1-3.11-4.73c.1-1.32.36-2.63.57-3.94.43-2.57.88-5.15,1.32-7.75h4.81L61.34,4.8Z"/><path class="cls-1" d="M70.76,4.82,70.6,6.26A4.24,4.24,0,0,1,75,4.76l-.89,4.52a10.68,10.68,0,0,0-1.14,0,3,3,0,0,0-2.64,2.54q-.52,3.11-1.07,6.21a1.35,1.35,0,0,1-.08.24H64.33c.13-.74.25-1.46.37-2.17.64-3.63,1.29-7.26,1.92-10.89,0-.29.13-.41.45-.4Z"/><path class="cls-1" d="M16.15,12.1c.67.73,1.37,1.44,2,2.2a13.81,13.81,0,0,1,3.18,6c.3,1.53.29,3-1,4.19a4,4,0,0,1-2.44.94,11,11,0,0,1-5.42-1.16A22.29,22.29,0,0,1,2.05,15,8.93,8.93,0,0,1,.72,10.28,3.55,3.55,0,0,1,4,6.66a10.47,10.47,0,0,1,5.29.92.71.71,0,0,1,.23.62c-.29,1.78-.62,3.57-.94,5.35s-.63,3.45-1,5.18c-.07.38.06.49.43.48,1.52,0,3,0,4.55,0a2.23,2.23,0,0,0,2.51-2.06c.28-1.55.54-3.09.81-4.64,0-.1.05-.21.08-.31Z"/></svg>