<svg id="Capa_1" data-name="Capa 1" xmlns="http://www.w3.org/2000/svg" viewBox="0 0 93.99 113.93"><defs><style>.cls-1{fill:#c0424e;}</style></defs><title>candado_cerrado</title><path class="cls-1" d="M110.18,127.61H31.52a7.68,7.68,0,0,1-7.67-7.67V81.78a7.68,7.68,0,0,1,7.67-7.67h78.66a7.68,7.68,0,0,1,7.67,7.67v38.16A7.68,7.68,0,0,1,110.18,127.61ZM31.52,78.11a3.67,3.67,0,0,0-3.67,3.67v38.16a3.67,3.67,0,0,0,3.67,3.67h78.66a3.67,3.67,0,0,0,3.67-3.67V81.78a3.67,3.67,0,0,0-3.67-3.67Z" transform="translate(-23.85 -13.68)"/><path class="cls-1" d="M104.44,75.13l-4-.22c0-.52,0-1,0-1.57V46.86A29.21,29.21,0,0,0,71.3,17.68h-.9A29.21,29.21,0,0,0,41.22,46.86V73.34c0,.52,0,1,0,1.57l-4,.21c0-.59,0-1.18,0-1.78V46.86A33.22,33.22,0,0,1,70.4,13.68h.9a33.22,33.22,0,0,1,33.18,33.18V73.34C104.48,73.94,104.47,74.53,104.44,75.13Z" transform="translate(-23.85 -13.68)"/><circle class="cls-1" cx="47" cy="87.18" r="6.46"/></svg>