<svg id="Capa_1" data-name="Capa 1" xmlns="http://www.w3.org/2000/svg" viewBox="0 0 93.99 113.93"><defs><style>.cls-1{fill:#2d6eff;}</style></defs><title>candado_abierto</title><path class="cls-1" d="M110.18,127.61H31.52a7.68,7.68,0,0,1-7.67-7.67V81.78a7.68,7.68,0,0,1,7.67-7.67h78.66a7.68,7.68,0,0,1,7.67,7.67v38.16A7.68,7.68,0,0,1,110.18,127.61ZM31.52,78.11a3.67,3.67,0,0,0-3.67,3.67v38.16a3.67,3.67,0,0,0,3.67,3.67h78.66a3.67,3.67,0,0,0,3.67-3.67V81.78a3.67,3.67,0,0,0-3.67-3.67Z" transform="translate(-23.85 -13.68)"/><path class="cls-1" d="M104.8,75.12l-4-.22c0-.52,0-1,0-1.56V46.86A29.22,29.22,0,0,0,71.66,17.68h-.9a29.28,29.28,0,0,0-29.11,27.1l-4-.29a33.3,33.3,0,0,1,33.1-30.81h.9a33.23,33.23,0,0,1,33.19,33.18V73.34C104.85,73.94,104.83,74.53,104.8,75.12Z" transform="translate(-23.85 -13.68)"/><circle class="cls-1" cx="47" cy="87.18" r="6.46"/></svg>