<?xml version="1.0" encoding="utf-8"?>
<!-- Generator: Adobe Illustrator 22.1.0, SVG Export Plug-In . SVG Version: 6.00 Build 0)  -->
<svg version="1.1" id="Capa_1" xmlns="http://www.w3.org/2000/svg" xmlns:xlink="http://www.w3.org/1999/xlink" x="0px" y="0px"
	 viewBox="0 0 50 50" style="enable-background:new 0 0 50 50;" xml:space="preserve">
<style type="text/css">
	.st0{fill:#FFFFFF;}
</style>
<g>
	<g>
		<path class="st0" d="M33.9,49.7H17.6c-2.8,0-5-2.2-5-5V5.5c0-2.8,2.2-5,5-5h16.3c2.8,0,5,2.2,5,5v39.3
			C38.9,47.5,36.6,49.7,33.9,49.7z M17.6,2.5c-1.7,0-3,1.4-3,3v39.3c0,1.7,1.4,3,3,3h16.3c1.7,0,3-1.4,3-3V5.5c0-1.7-1.4-3-3-3H17.6
			z"/>
	</g>
	<g>
		<rect x="13.6" y="38.9" class="st0" width="24.3" height="2"/>
	</g>
	<g>
		<path class="st0" d="M32.7,6.4h-6.6c-0.5,0-1-0.4-1-1s0.4-1,1-1h6.6c0.5,0,1,0.4,1,1S33.3,6.4,32.7,6.4z"/>
	</g>
	<g>
		<path class="st0" d="M21.5,6.4h-2.6c-0.5,0-1-0.4-1-1s0.4-1,1-1h2.6c0.5,0,1,0.4,1,1S22.1,6.4,21.5,6.4z"/>
	</g>
	<g>
		<path class="st0" d="M25.7,47.3c-1.6,0-2.9-1.3-2.9-2.9s1.3-2.9,2.9-2.9s2.9,1.3,2.9,2.9S27.4,47.3,25.7,47.3z M25.7,43.4
			c-0.5,0-1,0.4-1,1c0,0.5,0.4,1,1,1c0.5,0,1-0.4,1-1C26.7,43.8,26.3,43.4,25.7,43.4z"/>
	</g>
</g>
</svg>
