<?xml version="1.0" encoding="utf-8"?>
<!-- Generator: Adobe Illustrator 22.1.0, SVG Export Plug-In . SVG Version: 6.00 Build 0)  -->
<svg version="1.1" id="Capa_1" xmlns="http://www.w3.org/2000/svg" xmlns:xlink="http://www.w3.org/1999/xlink" x="0px" y="0px"
	 viewBox="0 0 141.7 141.7" style="enable-background:new 0 0 141.7 141.7;" xml:space="preserve">
<g>
	<g>
		<g>
			<g>
				<path fill="#009935" d="M70.9,140.4c-38.2,0-69.3-31.1-69.3-69.3c0-38.2,31.1-69.3,69.3-69.3c38.2,0,69.3,31.1,69.3,69.3
					C140.3,109.3,109.2,140.4,70.9,140.4z M70.9,8.1C36.2,8.1,8,36.3,8,71c0,34.7,28.2,63,63,63c34.7,0,63-28.2,63-63
					C133.9,36.3,105.7,8.1,70.9,8.1z"/>
			</g>
		</g>
	</g>
	<g>
		<path fill="#009935" d="M64.1,104c-0.8,0-1.5-0.3-2-0.9L39.1,78c-1-1.1-1-2.9,0.2-3.9c1.1-1,2.9-1,3.9,0.2L64,96.9L102,47.4
			c0.9-1.2,2.7-1.4,3.9-0.5c1.2,0.9,1.4,2.7,0.5,3.9l-40.1,52.1c-0.5,0.6-1.3,1-2.1,1.1C64.2,104,64.2,104,64.1,104z"/>
	</g>
</g>
</svg>
