<?xml version="1.0" encoding="utf-8"?>
<!-- Generator: Adobe Illustrator 22.1.0, SVG Export Plug-In . SVG Version: 6.00 Build 0)  -->
<svg version="1.1" id="Capa_1" xmlns="http://www.w3.org/2000/svg" xmlns:xlink="http://www.w3.org/1999/xlink" x="0px" y="0px"
	 viewBox="0 0 141.7 141.7" style="enable-background:new 0 0 141.7 141.7;" xml:space="preserve" fill="#FFFFFF">
<g>
	<g>
		<g>
			<path d="M71,138.2c-36.9,0-67-30-67-67c0-36.9,30-67,67-67c36.9,0,67,30,67,67C138,108.1,107.9,138.2,71,138.2z
				 M71,10.4c-33.5,0-60.8,27.3-60.8,60.8S37.5,132,71,132s60.8-27.3,60.8-60.8S104.5,10.4,71,10.4z"/>
		</g>
	</g>
	<g>
		<g>
			<path d="M61.1,97.6c-1.7,0-3.1-1.4-3.1-3.1V48c0-1.7,1.4-3.1,3.1-3.1s3.1,1.4,3.1,3.1v46.5
				C64.2,96.2,62.8,97.6,61.1,97.6z"/>
		</g>
		<g>
			<path d="M80.9,97.6c-1.7,0-3.1-1.4-3.1-3.1V48c0-1.7,1.4-3.1,3.1-3.1S84,46.3,84,48v46.5
				C84,96.2,82.6,97.6,80.9,97.6z"/>
		</g>
	</g>
</g>
</svg>
