<?xml version="1.0" encoding="utf-8"?>
<!-- Generator: Adobe Illustrator 22.1.0, SVG Export Plug-In . SVG Version: 6.00 Build 0)  -->
<svg version="1.1" id="Capa_1" xmlns="http://www.w3.org/2000/svg" xmlns:xlink="http://www.w3.org/1999/xlink" x="0px" y="0px"
	 viewBox="0 0 50 50" style="enable-background:new 0 0 50 50;" xml:space="preserve" fill="#FFFFFF">
<g>
	<circle cx="2.5" cy="40.6" r="1.9"/>
	<path d="M43.1,6.4H7c-3.6,0-6.4,2.9-6.5,6.5v3.9c0,0.7,0.6,1.3,1.3,1.3s1.3-0.6,1.3-1.3v-3.9C3.1,10.7,4.8,9,7,9h36.1
		c2.1,0,3.9,1.7,3.9,3.9v23.2c0,2.1-1.7,3.9-3.9,3.9H26.3c-0.7,0-1.3,0.6-1.3,1.3c0,0.7,0.6,1.3,1.3,1.3h16.8c3.6,0,6.4-2.9,6.4-6.5
		V12.9C49.5,9.3,46.6,6.4,43.1,6.4z"/>
	<path d="M1.8,32.5c-0.7,0-1.3,0.6-1.3,1.3c0,0.7,0.6,1.3,1.3,1.3c3.4,0,6.1,2.8,6.2,6.2c0,0.7,0.6,1.3,1.3,1.3
		s1.3-0.6,1.3-1.3C10.5,36.4,6.6,32.5,1.8,32.5z"/>
	<path d="M1.8,26.6c-0.7,0-1.3,0.6-1.3,1.3s0.6,1.3,1.3,1.3c6.7,0,12.1,5.4,12.1,12.1c0,0.7,0.6,1.3,1.3,1.3
		s1.3-0.6,1.3-1.3C16.5,33.1,9.9,26.6,1.8,26.6z"/>
	<path d="M1.8,20.6c-0.7,0-1.3,0.6-1.3,1.3s0.6,1.3,1.3,1.3c10,0,18,8.1,18.1,18.1c0,0.7,0.6,1.3,1.3,1.3
		s1.3-0.6,1.3-1.3C22.4,29.8,13.2,20.6,1.8,20.6z"/>
</g>
</svg>
