<?xml version="1.0" encoding="utf-8"?>
<!-- Generator: Adobe Illustrator 22.1.0, SVG Export Plug-In . SVG Version: 6.00 Build 0)  -->
<svg version="1.1" id="Capa_1" xmlns="http://www.w3.org/2000/svg" xmlns:xlink="http://www.w3.org/1999/xlink" x="0px" y="0px"
	 viewBox="0 0 141.7 141.7" style="enable-background:new 0 0 141.7 141.7;" xml:space="preserve">
<style type="text/css">
	.st0{fill:#FFFFFF;}
</style>
<g>
	<g>
		<g>
			<path class="st0" d="M70.7,137.7c-36.9,0-67-30-67-67s30-67,67-67c36.9,0,67,30,67,67S107.6,137.7,70.7,137.7z M70.7,9.9
				C37.2,9.9,9.9,37.2,9.9,70.7s27.3,60.8,60.8,60.8c33.5,0,60.8-27.3,60.8-60.8S104.2,9.9,70.7,9.9z"/>
		</g>
	</g>
	<g>
		<g>
			<path class="st0" d="M54.3,90.2c-0.8,0-1.6-0.3-2.2-0.9c-1.2-1.2-1.2-3.2,0-4.4l32.8-32.8c1.2-1.2,3.2-1.2,4.4,0
				c1.2,1.2,1.2,3.2,0,4.4L56.5,89.3C55.9,89.9,55.1,90.2,54.3,90.2z"/>
		</g>
		<g>
			<path class="st0" d="M87.1,90.2c-0.8,0-1.6-0.3-2.2-0.9L52.1,56.5c-1.2-1.2-1.2-3.2,0-4.4c1.2-1.2,3.2-1.2,4.4,0l32.8,32.8
				c1.2,1.2,1.2,3.2,0,4.4C88.7,89.9,87.9,90.2,87.1,90.2z"/>
		</g>
	</g>
</g>
</svg>
