<?xml version="1.0" encoding="utf-8"?>
<!-- Generator: Adobe Illustrator 22.1.0, SVG Export Plug-In . SVG Version: 6.00 Build 0)  -->
<svg version="1.1" id="Capa_1" xmlns="http://www.w3.org/2000/svg" xmlns:xlink="http://www.w3.org/1999/xlink" x="0px" y="0px"
	 viewBox="0 0 141.7 141.7" style="enable-background:new 0 0 141.7 141.7;" xml:space="preserve">
<style type="text/css">
	.st0{fill:#FFFFFF;}
</style>
<g>
	<g>
		<g>
			<path class="st0" d="M57.8,95.3c-0.9,0-1.7-0.4-2.3-1.2c-0.9-1.3-0.7-3.1,0.6-4l29.2-21.5c1.3-0.9,3.1-0.7,4,0.6
				c0.9,1.3,0.7,3.1-0.6,4L59.5,94.7C59,95.1,58.4,95.3,57.8,95.3z"/>
		</g>
		<g>
			<path class="st0" d="M87,73.8c-0.6,0-1.2-0.2-1.7-0.6L56.1,51.6c-1.3-0.9-1.5-2.7-0.6-4c0.9-1.3,2.7-1.5,4-0.6l29.2,21.6
				c1.3,0.9,1.5,2.7,0.6,4C88.7,73.4,87.9,73.8,87,73.8z"/>
		</g>
	</g>
	<g>
		<g>
			<g>
				<path class="st0" d="M70.9,138c-37,0-67.1-30.1-67.1-67.1S33.9,3.8,70.9,3.8S138,33.9,138,70.9S107.9,138,70.9,138z M70.9,10
					C37.3,10,10,37.3,10,70.9c0,33.6,27.3,60.9,60.9,60.9c33.6,0,60.9-27.3,60.9-60.9C131.8,37.3,104.5,10,70.9,10z"/>
			</g>
		</g>
	</g>
</g>
</svg>
