<?xml version="1.0" encoding="utf-8"?>
<!-- Generator: Adobe Illustrator 22.1.0, SVG Export Plug-In . SVG Version: 6.00 Build 0)  -->
<svg version="1.1" id="Capa_1" xmlns="http://www.w3.org/2000/svg" xmlns:xlink="http://www.w3.org/1999/xlink" x="0px" y="0px"
	 viewBox="0 0 141.7 141.7" style="enable-background:new 0 0 141.7 141.7;" xml:space="preserve">
<style type="text/css">
	.st0{fill:#FFFFFF;}
</style>
<g>
	<g>
		<g>
			<path class="st0" d="M70.7,116.5c-19.7,0-36.3-9.8-46.8-18.1c-9.8-7.7-20.1-19-20.1-24.8c0-5.9,10.4-17.2,20.1-24.8
				C34.4,40.5,51,30.7,70.7,30.7c19.3,0,36,10.2,46.7,18.7c8.2,6.5,20.3,18.7,20.3,24.2c0,5.7-10.5,17-20.5,24.8
				C106.6,106.6,89.9,116.5,70.7,116.5z M12.2,73.6c2.2,6.1,27.6,34.5,58.5,34.5c29.7,0,55.6-28.3,58.4-34.4
				c-3.4-6.8-29.7-34.6-58.4-34.6C39.8,39.1,14.4,67.5,12.2,73.6z M129.4,74.3L129.4,74.3L129.4,74.3z M12.1,73.9L12.1,73.9
				L12.1,73.9z"/>
		</g>
	</g>
	<g>
		<g>
			<path class="st0" d="M65.1,90.8c-5,0-9-3.9-9-8.8V65.6c0-4.8,4-8.8,9-8.8c1.5,0,3,0.4,4.2,1.2l15.3,8.1c3,1.6,4.7,4.5,4.7,7.9
				c0,3.1-1.7,6.1-4.5,7.8l-0.2,0.1l-16.4,8.7h-1c-0.1,0-0.2,0-0.4,0C66.4,90.7,65.8,90.8,65.1,90.8z M65,65.2
				c-0.4,0-0.6,0.3-0.6,0.4V82c0,0.2,0.2,0.4,0.6,0.4c0.1,0,0.3,0,0.5-0.1c0.1,0,0.3,0,0.4-0.1l14.6-7.7c0.3-0.2,0.4-0.4,0.4-0.6
				c0-0.3-0.1-0.4-0.3-0.5L65,65.2z"/>
		</g>
	</g>
</g>
</svg>
