<?xml version="1.0" encoding="utf-8"?>
<!-- Generator: Adobe Illustrator 22.1.0, SVG Export Plug-In . SVG Version: 6.00 Build 0)  -->
<svg version="1.1" id="Capa_1" xmlns="http://www.w3.org/2000/svg" xmlns:xlink="http://www.w3.org/1999/xlink" x="0px" y="0px"
	 viewBox="0 0 141.7 141.7" style="enable-background:new 0 0 141.7 141.7;" xml:space="preserve">
<style type="text/css">
	.st0{fill:#FFFFFF;}
	.st1{enable-background:new    ;}
</style>
<g>
	<g>
		<g>
			<g>
				<path class="st0" d="M70.9,138.2c-36.9,0-67-30-67-67c0-36.9,30-67,67-67s67,30,67,67C137.9,108.1,107.8,138.2,70.9,138.2z
					 M70.9,10.4c-33.5,0-60.8,27.3-60.8,60.8S37.4,132,70.9,132c33.5,0,60.8-27.3,60.8-60.8S104.4,10.4,70.9,10.4z"/>
			</g>
		</g>
	</g>
	<g class="st1">
		<path class="st0" d="M65.5,76.9c0-8.9,10.2-10.4,10.2-16.7c0-2.9-2.6-5.1-6-5.1c-3.5,0-6.6,2.6-6.6,2.6l-4.3-5.4
			c0,0,4.3-4.4,11.6-4.4c7,0,13.4,4.3,13.4,11.6c0,10.2-10.7,11.3-10.7,18v2.4h-7.6V76.9z M65.5,85.2h7.6v7.3h-7.6V85.2z"/>
	</g>
</g>
</svg>
