<?xml version="1.0" encoding="utf-8"?>
<!-- Generator: Adobe Illustrator 22.1.0, SVG Export Plug-In . SVG Version: 6.00 Build 0)  -->
<svg version="1.1" id="Capa_1" xmlns="http://www.w3.org/2000/svg" xmlns:xlink="http://www.w3.org/1999/xlink" x="0px" y="0px"
	 viewBox="0 0 50 50" style="enable-background:new 0 0 50 50;" xml:space="preserve">
<style type="text/css">
	.st0{fill:#FFFFFF;}
</style>
<g transform="translate(0,-952.36218)">
	<g>
		<path class="st0" d="M44.8,1001.7H4.9c-1.9,0-3.5-1.6-3.5-3.5v-26.9c0-1.1,0.5-2.1,1.4-2.8l20.1-15c1.3-0.8,2.7-0.8,4,0l0.1,0.1
			l19.9,15c0.9,0.7,1.4,1.7,1.4,2.8v26.9C48.3,1000.1,46.7,1001.7,44.8,1001.7z M5.4,997.7h38.9v-26.2L24.8,957L5.4,971.5V997.7z
			 M5.4,971.3L5.4,971.3C5.4,971.3,5.4,971.3,5.4,971.3z"/>
	</g>
</g>
</svg>
