<?xml version="1.0" encoding="utf-8"?>
<!-- Generator: Adobe Illustrator 22.1.0, SVG Export Plug-In . SVG Version: 6.00 Build 0)  -->
<svg version="1.1" id="Capa_1" xmlns="http://www.w3.org/2000/svg" xmlns:xlink="http://www.w3.org/1999/xlink" x="0px" y="0px"
	 viewBox="0 0 141.7 141.7" style="enable-background:new 0 0 141.7 141.7;" xml:space="preserve">
<style type="text/css">
	.st0{fill:#2d6eff;}
</style>
<g>
	<path class="st0" d="M18.8,129.1c-0.2,0-0.5,0-0.7-0.1c-1.5-0.1-2.5-0.8-3.1-1.4c-1.4-1.4-1.9-3.3-1.3-5l10.5-36l0.2-0.3
		c0.6-1.1,0.9-1.3,1-1.5L90.1,20c8.3-8.1,22.6-7.6,31.3,1.1c8.6,8.6,9.2,23.3,1.1,31.3l-64.7,64.7c-0.2,0.2-0.4,0.4-0.7,0.6
		c-0.4,0.4-1,0.7-1.7,0.8L19.7,129h-0.2C19.3,129.1,19.1,129.1,18.8,129.1z M18.5,124C18.5,124,18.5,124,18.5,124H19l35.4-10.4
		L119,48.9c6-6,5.5-17.6-1.1-24.2c-6.7-6.7-18-7.2-24.3-1.1L29,88.3c-0.1,0.1-0.1,0.2-0.2,0.3L18.5,124z M29,88.4L29,88.4
		C28.9,88.4,28.9,88.4,29,88.4z"/>
</g>
</svg>
