<?xml version="1.0" encoding="utf-8"?>
<!-- Generator: Adobe Illustrator 22.1.0, SVG Export Plug-In . SVG Version: 6.00 Build 0)  -->
<svg version="1.1" id="Capa_1" xmlns="http://www.w3.org/2000/svg" xmlns:xlink="http://www.w3.org/1999/xlink" x="0px" y="0px"
	 viewBox="0 0 141.7 141.7" style="enable-background:new 0 0 141.7 141.7;" xml:space="preserve">
<style type="text/css">
	.st0{fill:#FFFFFF;}
	.st1{opacity:0.5;enable-background:new    ;}
</style>
<g>
	<g>
		<g>
			<circle class="st0" cx="51.7" cy="70.9" r="4"/>
		</g>
		<g>
			<circle class="st0" cx="70.9" cy="70.9" r="4"/>
		</g>
		<g>
			<circle class="st0" cx="90" cy="70.9" r="4"/>
		</g>
	</g>
	<g>
		<g>
			<g>
				<path class="st0" d="M70.9,119.6c-26.9,0-48.7-21.9-48.7-48.7S44,22.2,70.9,22.2s48.7,21.9,48.7,48.7S97.8,119.6,70.9,119.6z
					 M70.9,26.6c-24.4,0-44.3,19.9-44.3,44.3s19.9,44.3,44.3,44.3s44.3-19.9,44.3-44.3S95.3,26.6,70.9,26.6z"/>
			</g>
		</g>
	</g>
	<g class="st1">
		<path class="st0" d="M70.9,138c-37,0-67.1-30.1-67.1-67.1h13.4c0,29.6,24.1,53.7,53.7,53.7s53.7-24.1,53.7-53.7
			s-24.1-53.7-53.7-53.7V3.8c37,0,67.1,30.1,67.1,67.1C138,107.9,107.9,138,70.9,138z"/>
	</g>
</g>
</svg>
