<svg data-name="Layer 2" xmlns="http://www.w3.org/2000/svg" width="198" height="82" viewBox="0 0 198 82">
  <defs>
    <clipPath id="a" transform="translate(-.27 -.26)">
      <path fill="none" d="M.27.26h197.46v81.47H.27z"/>
    </clipPath>
  </defs>
  <path d="M.05 60.25h197.36v1.31H.05z" fill="#fff"/>
  <path d="M44.12 21.14v-5h-4.06a1.54 1.54 0 00-1.53 1.6v33.6h5.66V33.25a12.24 12.24 0 0112-11.57H58v-5.5h-1.95a17.66 17.66 0 00-11.93 5m40.27 22.56a5.16 5.16 0 01-2.2-2.9 8.17 8.17 0 01-.26-2.52V21.74h10.24v-5.6H81.92v-15h-4.05a1.54 1.54 0 00-1.54 1.53v13.49h-6.16v5.58h6.15v17.77a10.92 10.92 0 005.18 9.08 33.92 33.92 0 008.57 3.4l1.77.41 1.24-5.46-1.77-.41a27.32 27.32 0 01-6.92-2.79M60.1 3.95l4-3.95 3.95 3.95-3.95 4z" fill="#4ba0b8"/>
  <g clip-path="url(#a)">
    <path d="M62.79 16.16a1.54 1.54 0 00-1.54 1.58v33.6h5.59V16.16h-4.05zM17.73 45.74a12 12 0 1111.88-12 12 12 0 01-11.88 12m0-29.56c-3.44 0-6.52 1.22-9.51 2.42l-1.29.52-1.29.5V1.12h-4.1A1.55 1.55 0 000 2.67v30.81a17.58 17.58 0 0017.68 17.83 17.58 17.58 0 000-35.15" fill="#4ba0b8"/>
  </g>
  <path d="M151.61 45.74a12 12 0 1112-12 12 12 0 01-12 12m0-29.58a17.57 17.57 0 1017.57 17.58 17.57 17.57 0 00-17.57-17.57M113.2 45.74a12 12 0 1111.92-12 12 12 0 01-11.92 12m0-29.54c-3.44 0-6.52 1.22-9.51 2.42l-1.29.52-1.29.5V1.15h-4.07a1.54 1.54 0 00-1.54 1.51v30.82a17.58 17.58 0 0017.68 17.83 17.58 17.58 0 000-35.15" fill="#d2525d"/>
  <path d="M197.46 18.96l-4.44-3.32-10.09 13.47-10.09-13.47-4.44 3.32 11.07 14.78-11.06 14.79 4.44 3.32 10.08-13.48 10.1 13.49 4.44-3.32-11.07-14.8 11.06-14.78z" fill="#d2525d"/>
  <path d="M127.4 72.96s.05-1-1.32-1.09h-1.35v2.4h1.13s1.51 0 1.51-1.31m-15.69 0s.05-1-1.32-1.09h-1.32v2.4h1.13s1.51 0 1.51-1.31" fill="#fff"/>
  <path d="M103.86 81.46h13.61V68.62h-13.61zm3.58-11h3.24c2.91.27 2.74 2.48 2.74 2.48a2 2 0 01-1.19 1.8 2.4 2.4 0 012 2.3c0 2.61-3.1 2.6-3.1 2.6h-3.7v-9.21zm20.79 6.49s.05-1.22-1.73-1.21h-1.77v2.52h1.73s1.74.1 1.74-1.31" fill="#fff"/>
  <path d="M119.55 81.46h13.61V68.62h-13.61zm3.57-11h3.24c2.91.27 2.74 2.48 2.74 2.48a2 2 0 01-1.19 1.8 2.4 2.4 0 012 2.3c0 2.61-3.09 2.6-3.09 2.6h-3.7v-9.21zm12.13 11.05h13.61V68.63h-13.62v12.85zm10.91-2.54a7.37 7.37 0 01-6 .38 4.62 4.62 0 01.69-8.75 6.6 6.6 0 012.72-.2 10 10 0 012.54.73v1.7a7.82 7.82 0 00-3.5-1s-3.43-.07-3.58 3.29c0 0-.12 3.09 3.54 3.27a6 6 0 003.62-1.14v1.77zm-33.61-2s.05-1.22-1.73-1.21h-1.73v2.52h1.73s1.73.1 1.73-1.31m45.3-2.07a2.16 2.16 0 01-1.22-2.16c0-1.69 1.36-2.52 3-2.52h.57a.5.5 0 01.53.52v.34a.49.49 0 01-.56.54h-.44a1.27 1.27 0 00-1.39 1.28c0 .54.31 1.27 1.46 1.27h1.52v-.68c0-.37.2-.54.57-.54h.57c.37 0 .57.15.57.46v.78h.7a.5.5 0 01.56.56v.38a.5.5 0 01-.56.61h-.67v1.13a3.11 3.11 0 01-3.44 3.24c-2.05 0-3.4-1.25-3.4-2.86a2.47 2.47 0 011.62-2.38m1.77 3.66a1.56 1.56 0 001.73-1.79v-1h-1.61c-1.06 0-1.74.48-1.74 1.4a1.48 1.48 0 001.63 1.37m15.94 3h-.31a5.24 5.24 0 01-2.2-.69 3.4 3.4 0 01-1.56-2.08 4.44 4.44 0 01-.18-1.27v-4a.25.25 0 01.22-.27h3a.26.26 0 01.16.27v4.5a1.5 1.5 0 00.65 1.28 1.72 1.72 0 00.76.27 2.85 2.85 0 00.76 0 1.62 1.62 0 001.28-.94 2.54 2.54 0 00.24-1v-7.17a.76.76 0 01.46-.75 1.62 1.62 0 01.27-.11 5 5 0 01.63-.1 3.55 3.55 0 011.31.11 1.67 1.67 0 01.35.16.77.77 0 01.35.68v2.69h2.71a.22.22 0 01.22.23v1.65a.23.23 0 01-.19.24h-1.66a2.8 2.8 0 01-1-.16h-.07v1.81a3.36 3.36 0 00.23 1.21 2.1 2.1 0 001.48 1.24 3.62 3.62 0 001.14.1 3.16 3.16 0 001.12-.24 2.33 2.33 0 001.46-1.56 2.66 2.66 0 00-.11-1.69c-.08-.18-.16-.34-.26-.5s-.18-.29-.24-.44a1 1 0 01.19-1.12 3 3 0 011.69-.91 1.39 1.39 0 01.53 0 .88.88 0 01.6.42c.35.56.71 1.1 1 1.67.67 1.16 1.31 2.33 2 3.48l.07.11v-.07a23.43 23.43 0 001.22-2.65c.35-.88.68-1.78 1-2.69a.3.3 0 01.34-.26h.08c.31.08.63.19.94.29l.56.18h.05a.24.24 0 01.19.29v.05c-.05.19-.12.38-.19.57a33.25 33.25 0 01-2.94 6 3.92 3.92 0 01-.35.48 1.65 1.65 0 01-1 .54l-.31.05h-.73a1.6 1.6 0 01-1.29-.8c-.37-.54-.72-1.1-1.09-1.65v-.07a5.08 5.08 0 01-2.34 2 6.34 6.34 0 01-2 .49H183.73l-.6-.05a7.14 7.14 0 01-1.08-.2 5.4 5.4 0 01-1.5-.64c-.18-.11-.35-.24-.53-.37l-.27.2a5.45 5.45 0 01-1.54.78 5.81 5.81 0 01-1.17.26h-1.48zm-4.3-11.27v-.33a1.59 1.59 0 011.31-1.31 2 2 0 011 .05 1.5 1.5 0 011 .87 1.92 1.92 0 01.08 1.32 1.5 1.5 0 01-1 1 1.86 1.86 0 01-1.69-.22 1.58 1.58 0 01-.64-1v-.38zm-92.36.9a.49.49 0 01.54-.56h2.83c1.71 0 2.94.88 2.94 2.44a2.21 2.21 0 01-1.16 2 2.22 2.22 0 011.52 2.23c0 1.91-1.51 2.76-3.28 2.76h-2.87a.49.49 0 01-.54-.56v-8.37zm3.4 3.31a1.13 1.13 0 001.17-1.22 1.1 1.1 0 00-1.2-1.18h-1.64v2.4h1.67zm.15 4.14a1.37 1.37 0 100-2.74H80.6v2.74zm8.57-2.49l-2.78-4.86c-.23-.38-.05-.67.38-.67h.75a.63.63 0 01.64.42l1.28 2.38c.3.59.57 1.27.57 1.27s.29-.68.57-1.27l1.3-2.39a.68.68 0 01.64-.42h.75c.44 0 .6.3.38.67l-2.77 4.86v3.42a.49.49 0 01-.54.56h-.61a.49.49 0 01-.56-.56v-3.42zM5.33 70.3a5.41 5.41 0 013.14 1 .53.53 0 01.11.79l-.24.39c-.19.31-.45.34-.78.14a4 4 0 00-2.16-.68 3.09 3.09 0 00-3.21 3.29 3.21 3.21 0 003.23 3.43 4 4 0 002.31-.92.49.49 0 01.79.1l.27.37a.55.55 0 010 .75h-.05a5.42 5.42 0 01-3.39 1.2 5 5 0 010-9.92zm10.45 4.67a1.41 1.41 0 001.51-1.52 1.28 1.28 0 00-.76-1.31 2.39 2.39 0 00-1-.16h-1.31v3zm-3.29-3.93a.51.51 0 01.56-.57h2.6a4.35 4.35 0 011.82.26 2.68 2.68 0 011.61 2.63 2.8 2.8 0 01-1.59 2.63 3.87 3.87 0 01.31.5l1.58 2.89c.23.39.05.68-.39.68h-.73a.69.69 0 01-.67-.39l-1.69-3.18h-1.68v3a.5.5 0 01-.56.57h-.63a.5.5 0 01-.56-.57v-8.45zm10.48 0a.51.51 0 01.56-.57h4.63a.52.52 0 01.57.57v.38a.51.51 0 01-.57.56h-3.43v2.52h2.68a.51.51 0 01.57.56v.38a.51.51 0 01-.57.57h-2.68v2.57h3.66a.51.51 0 01.57.56v.38a.51.51 0 01-.57.57h-4.86a.5.5 0 01-.56-.57v-8.48zm14 5.14l-.86-2.57c-.16-.54-.38-1.5-.38-1.5s-.22 1-.38 1.5l-.87 2.57h2.45zm-2.3-5.25a.62.62 0 01.64-.46h.86a.61.61 0 01.64.46l3 8.49c.14.39 0 .65-.46.65h-.62a.61.61 0 01-.64-.46l-.68-2h-3.4l-.67 2a.6.6 0 01-.64.48h-.63c-.42 0-.6-.26-.46-.65l3-8.49zm9.73 1h-2.61a.5.5 0 01-.57-.56v-.38a.51.51 0 01.57-.57h6.89a.51.51 0 01.56.57v.38a.5.5 0 01-.56.56h-2.57v7.53a.51.51 0 01-.57.57h-.61a.5.5 0 01-.56-.57zm8.08-.93a.51.51 0 01.56-.57h4.59a.52.52 0 01.57.57v.38a.51.51 0 01-.57.56h-3.44v2.52h2.68a.51.51 0 01.57.56v.38a.51.51 0 01-.57.57h-2.68v2.57h3.66a.51.51 0 01.57.56v.38a.51.51 0 01-.57.57h-4.84a.5.5 0 01-.56-.57v-8.44zm12.86 7.53a3.3 3.3 0 000-6.59h-1.48v6.6h1.44zm-3.22-7.49a.51.51 0 01.56-.57h2.71c3 0 4.89 1.76 4.89 4.79a4.51 4.51 0 01-4.89 4.82h-2.66a.5.5 0 01-.56-.57z" fill="#fff"/>
</svg>
