<?xml version="1.0" encoding="utf-8"?>
<!-- Generator: Adobe Illustrator 22.1.0, SVG Export Plug-In . SVG Version: 6.00 Build 0)  -->
<svg version="1.1" id="Capa_1" xmlns="http://www.w3.org/2000/svg" xmlns:xlink="http://www.w3.org/1999/xlink" x="0px" y="0px"
	 viewBox="0 0 50 50" style="enable-background:new 0 0 50 50;" xml:space="preserve">
<style type="text/css">
	.st0{fill:#FFFFFF;}
</style>
<g>
	<g>
		<g>
			<path class="st0" d="M25,49.7c-6.3,0-12.7-2.4-17.5-7.2C2.8,37.8,0.3,31.6,0.3,25c0-6.6,2.6-12.8,7.2-17.5S18.4,0.3,25,0.3
				c6.6,0,12.8,2.6,17.5,7.2c9.6,9.6,9.6,25.3,0,35C37.7,47.3,31.3,49.7,25,49.7z M25,4.1c-5.6,0-10.8,2.2-14.8,6.1S4.1,19.4,4.1,25
				s2.2,10.8,6.1,14.8c8.1,8.1,21.4,8.1,29.5,0c8.1-8.1,8.1-21.4,0-29.5C35.8,6.3,30.6,4.1,25,4.1z"/>
		</g>
	</g>
	<g>
		<g>
			<path class="st0" d="M36.2,19.2H13.8c-1.1,0-1.9-0.9-1.9-1.9c0-1.1,0.9-1.9,1.9-1.9h22.3c1.1,0,1.9,0.9,1.9,1.9
				C38.1,18.3,37.2,19.2,36.2,19.2z"/>
		</g>
		<g>
			<path class="st0" d="M36.2,26.9H13.8c-1.1,0-1.9-0.9-1.9-1.9c0-1.1,0.9-1.9,1.9-1.9h22.3c1.1,0,1.9,0.9,1.9,1.9
				C38.1,26.1,37.2,26.9,36.2,26.9z"/>
		</g>
		<g>
			<path class="st0" d="M36.2,34.7H13.8c-1.1,0-1.9-0.9-1.9-1.9c0-1.1,0.9-1.9,1.9-1.9h22.3c1.1,0,1.9,0.9,1.9,1.9
				C38.1,33.8,37.2,34.7,36.2,34.7z"/>
		</g>
	</g>
</g>
</svg>
