<?xml version="1.0" encoding="utf-8"?>
<!-- Generator: Adobe Illustrator 22.1.0, SVG Export Plug-In . SVG Version: 6.00 Build 0)  -->
<svg version="1.1" id="Capa_1" xmlns="http://www.w3.org/2000/svg" xmlns:xlink="http://www.w3.org/1999/xlink" x="0px" y="0px"
	 viewBox="0 0 50 50" style="enable-background:new 0 0 50 50;" xml:space="preserve">
<style type="text/css">
	.st0{fill:#FFFFFF;}
	.st1{opacity:0.5;}
	.st2{opacity:0.5;clip-path:url(#SVGID_2_);}
	.st3{opacity:0.5;clip-path:url(#SVGID_4_);}
</style>
<g>
	<g>
		<g>
			<path class="st0" d="M24.4,30.9c-4,0-7.2-3.2-7.2-7.2c0-4,3.2-7.2,7.2-7.2s7.2,3.2,7.2,7.2C31.7,27.7,28.4,30.9,24.4,30.9z
				 M24.4,17.1c-3.6,0-6.6,2.9-6.6,6.6c0,3.6,2.9,6.6,6.6,6.6s6.6-2.9,6.6-6.6C31,20.1,28,17.1,24.4,17.1z"/>
		</g>
	</g>
</g>
<g class="st1">
	<path class="st0" d="M24.4,33.8c-5.6,0-10.1-4.5-10.1-10.1s4.5-10.1,10.1-10.1s10.1,4.5,10.1,10.1S30,33.8,24.4,33.8z M24.4,15.6
		c-4.4,0-8.1,3.6-8.1,8.1c0,4.4,3.6,8.1,8.1,8.1c4.4,0,8.1-3.6,8.1-8.1C32.5,19.2,28.9,15.6,24.4,15.6z"/>
</g>
<g>
	<g>
		<path class="st0" d="M22.5,26c-0.1,0-0.2,0-0.3-0.1c-0.1-0.1-0.1-0.4,0-0.5l3.9-3.9c0.1-0.1,0.4-0.1,0.5,0c0.1,0.1,0.1,0.4,0,0.5
			l-3.9,3.9C22.6,26,22.6,26,22.5,26z"/>
	</g>
	<g>
		<path class="st0" d="M26.4,26c-0.1,0-0.2,0-0.3-0.1L22.2,22c-0.1-0.1-0.1-0.4,0-0.5c0.1-0.1,0.4-0.1,0.5,0l3.9,3.9
			c0.1,0.1,0.1,0.4,0,0.5C26.6,26,26.5,26,26.4,26z"/>
	</g>
</g>
<g>
	<defs>
		<polygon id="SVGID_1_" points="21.6,23.7 6.7,37.6 -8.3,51.4 -8.3,23.7 -8.3,-4.1 6.7,9.8 		"/>
	</defs>
	<clipPath id="SVGID_2_">
		<use xlink:href="#SVGID_1_"  style="overflow:visible;"/>
	</clipPath>
	<g class="st2">
		<path class="st0" d="M21.6,38.1c-8,0-14.4-6.5-14.4-14.4c0-8,6.5-14.4,14.4-14.4c8,0,14.4,6.5,14.4,14.4
			C36.1,31.6,29.6,38.1,21.6,38.1z M21.6,12.1c-6.4,0-11.6,5.2-11.6,11.6c0,6.4,5.2,11.6,11.6,11.6c6.4,0,11.6-5.2,11.6-11.6
			C33.2,17.3,28,12.1,21.6,12.1z"/>
	</g>
	<g class="st2">
		<path class="st0" d="M21.6,44.8C10,44.8,0.5,35.4,0.5,23.7C0.5,12,10,2.5,21.6,2.5c11.7,0,21.2,9.5,21.2,21.2
			C42.8,35.4,33.3,44.8,21.6,44.8z M21.6,5.4c-10.1,0-18.3,8.2-18.3,18.3S11.6,42,21.6,42s18.3-8.2,18.3-18.3S31.7,5.4,21.6,5.4z"/>
	</g>
</g>
<g>
	<defs>
		<polygon id="SVGID_3_" points="27.1,23.7 42.1,9.8 57.1,-4.1 57.1,23.7 57.1,51.4 42.1,37.6 		"/>
	</defs>
	<clipPath id="SVGID_4_">
		<use xlink:href="#SVGID_3_"  style="overflow:visible;"/>
	</clipPath>
	<g class="st3">
		<path class="st0" d="M27.1,38.1c-8,0-14.4-6.5-14.4-14.4c0-8,6.5-14.4,14.4-14.4c8,0,14.4,6.5,14.4,14.4
			C41.6,31.6,35.1,38.1,27.1,38.1z M27.1,12.1c-6.4,0-11.6,5.2-11.6,11.6c0,6.4,5.2,11.6,11.6,11.6s11.6-5.2,11.6-11.6
			C38.7,17.3,33.5,12.1,27.1,12.1z"/>
	</g>
	<g class="st3">
		<path class="st0" d="M27.1,44.8C15.5,44.8,6,35.4,6,23.7C6,12,15.5,2.5,27.1,2.5S48.3,12,48.3,23.7C48.3,35.4,38.8,44.8,27.1,44.8
			z M27.1,5.4c-10.1,0-18.3,8.2-18.3,18.3S17.1,42,27.1,42s18.3-8.2,18.3-18.3S37.2,5.4,27.1,5.4z"/>
	</g>
</g>
</svg>
