<?xml version="1.0" encoding="utf-8"?>
<!-- Generator: Adobe Illustrator 22.1.0, SVG Export Plug-In . SVG Version: 6.00 Build 0)  -->
<svg version="1.1" id="Capa_1" xmlns="http://www.w3.org/2000/svg" xmlns:xlink="http://www.w3.org/1999/xlink" x="0px" y="0px"
	 viewBox="0 0 141.7 141.7" style="enable-background:new 0 0 141.7 141.7;" xml:space="preserve">
<style type="text/css">
	.st0{fill:#FFFFFF;}
</style>
<g>
	<g>
		<g>
			<g>
				<g>
					<path class="st0" d="M56.7,97.7c-1,0-1.9-0.4-2.5-1.3c-1-1.4-0.7-3.3,0.7-4.4l31.4-23.2c1.4-1,3.3-0.7,4.4,0.7
						c1,1.4,0.7,3.3-0.7,4.4L58.6,97.1C58,97.5,57.3,97.7,56.7,97.7z"/>
				</g>
				<g>
					<path class="st0" d="M88.1,74.5c-0.6,0-1.3-0.2-1.9-0.6L54.8,50.6c-1.4-1-1.7-3-0.6-4.4c1-1.4,3-1.7,4.4-0.6L90,68.9
						c1.4,1,1.7,3,0.6,4.4C90,74.1,89,74.5,88.1,74.5z"/>
				</g>
			</g>
			<g>
				<path class="st0" d="M70.9,138.5c-37,0-67.1-30.1-67.1-67.1S33.9,4.3,70.9,4.3S138,34.4,138,71.4S107.9,138.5,70.9,138.5z
					 M70.9,10.5C37.3,10.5,10,37.8,10,71.4c0,33.6,27.3,60.9,60.9,60.9c33.6,0,60.9-27.3,60.9-60.9C131.8,37.8,104.5,10.5,70.9,10.5
					z"/>
			</g>
		</g>
		<g>
			<path class="st0" d="M56.7,97.7c-1.7,0-3.1-1.4-3.1-3.1V48.1c0-1.7,1.4-3.1,3.1-3.1s3.1,1.4,3.1,3.1v46.5
				C59.8,96.3,58.4,97.7,56.7,97.7z"/>
		</g>
	</g>
</g>
</svg>
