<?xml version="1.0" encoding="utf-8"?>
<!-- Generator: Adobe Illustrator 22.1.0, SVG Export Plug-In . SVG Version: 6.00 Build 0)  -->
<svg version="1.1" id="Capa_1" xmlns="http://www.w3.org/2000/svg" xmlns:xlink="http://www.w3.org/1999/xlink" x="0px" y="0px"
	 viewBox="0 0 141.7 141.7" style="enable-background:new 0 0 141.7 141.7;" xml:space="preserve">
<style type="text/css">
	.st0{fill:#FFFFFF;}
</style>
<g>
	<g>
		<path class="st0" d="M70.9,137.8C34,137.8,4,107.8,4,70.9S34,4,70.9,4s66.9,30,66.9,66.9S107.8,137.8,70.9,137.8z M70.9,10.2
			c-33.5,0-60.7,27.2-60.7,60.7s27.2,60.7,60.7,60.7s60.7-27.2,60.7-60.7S104.4,10.2,70.9,10.2z"/>
	</g>
	<g>
		<circle class="st0" cx="70.9" cy="61.6" r="18.2"/>
	</g>
	<g>
		<path class="st0" d="M115.2,115.1c-8.2-16-24.9-27-44.1-27c-19.6,0-36.5,11.4-44.6,27.8c0,0,26.7,18.7,43.7,18.7
			C87.8,134.6,115.2,115.1,115.2,115.1z"/>
	</g>
</g>
</svg>
