<?xml version="1.0" encoding="utf-8"?>
<!-- Generator: Adobe Illustrator 22.1.0, SVG Export Plug-In . SVG Version: 6.00 Build 0)  -->
<svg version="1.1" id="Capa_1" xmlns="http://www.w3.org/2000/svg" xmlns:xlink="http://www.w3.org/1999/xlink" x="0px" y="0px"
	 viewBox="0 0 141.7 141.7" style="enable-background:new 0 0 141.7 141.7;" xml:space="preserve">
<style type="text/css">
	.st0{fill:#FFFFFF;}
</style>
<g>
	<g>
		<path class="st0" d="M59.1,104.4C31.3,104.4,8.7,81.8,8.7,54S31.3,3.6,59.1,3.6c27.8,0,50.4,22.6,50.4,50.4S86.9,104.4,59.1,104.4
			z M59.1,11.6c-23.4,0-42.4,19-42.4,42.4c0,23.4,19,42.4,42.4,42.4s42.4-19,42.4-42.4C101.5,30.6,82.5,11.6,59.1,11.6z"/>
	</g>
	<g>
		<path class="st0" d="M126.9,137.7c-1.1,0-2.2-0.4-3-1.3L84.8,93.2c-1.5-1.6-1.4-4.2,0.3-5.7c1.6-1.5,4.2-1.4,5.7,0.3l39.1,43.2
			c1.5,1.6,1.4,4.2-0.3,5.7C128.8,137.4,127.9,137.7,126.9,137.7z"/>
	</g>
</g>
</svg>
