<?xml version="1.0" encoding="utf-8"?>
<!-- Generator: Adobe Illustrator 22.1.0, SVG Export Plug-In . SVG Version: 6.00 Build 0)  -->
<svg version="1.1" id="Capa_1" xmlns="http://www.w3.org/2000/svg" xmlns:xlink="http://www.w3.org/1999/xlink" x="0px" y="0px"
	 viewBox="0 0 141.7 141.7" style="enable-background:new 0 0 141.7 141.7;" xml:space="preserve">
<g>
	<g>
		<g>
			<g>
				<path fill="#F03F3F" d="M70.9,141.7C31.8,141.7,0,109.9,0,70.9S31.8,0,70.9,0s70.9,31.8,70.9,70.9S109.9,141.7,70.9,141.7z
					 M70.9,6.5C35.4,6.5,6.5,35.4,6.5,70.9c0,35.5,28.9,64.3,64.3,64.3c35.5,0,64.3-28.9,64.3-64.3C135.2,35.4,106.3,6.5,70.9,6.5z"
					/>
			</g>
		</g>
	</g>
	<g>
		<path fill="#F03F3F" d="M74.4,83.2h-8.3V50h8.3V83.2z M74.4,96.3h-8.2v-7.4h8.2V96.3z"/>
	</g>
</g>
</svg>
