<?xml version="1.0" encoding="utf-8"?>
<!-- Generator: Adobe Illustrator 22.1.0, SVG Export Plug-In . SVG Version: 6.00 Build 0)  -->
<svg version="1.1" id="Capa_1" xmlns="http://www.w3.org/2000/svg" xmlns:xlink="http://www.w3.org/1999/xlink" x="0px" y="0px"
	 viewBox="0 0 141.7 141.7" style="enable-background:new 0 0 141.7 141.7;" xml:space="preserve">
<style type="text/css">
	.st0{fill:#FFFFFF;}
</style>
<g>
	<g>
		<g>
			<path class="st0" d="M70.6,137.4c-36.9,0-67-30-67-67c0-36.9,30-67,67-67c36.9,0,67,30,67,67C137.6,107.3,107.5,137.4,70.6,137.4
				z M70.6,9.6C37.1,9.6,9.8,36.9,9.8,70.4c0,33.5,27.3,60.8,60.8,60.8c33.5,0,60.8-27.3,60.8-60.8C131.4,36.9,104.1,9.6,70.6,9.6z"
				/>
		</g>
	</g>
	<g>
		<g>
			<path class="st0" d="M70.6,93.6c-1.5,0-2.7-1.2-2.7-2.7v-41c0-1.5,1.2-2.7,2.7-2.7c1.5,0,2.7,1.2,2.7,2.7v41
				C73.3,92.4,72.1,93.6,70.6,93.6z"/>
		</g>
		<g>
			<path class="st0" d="M91.1,73.1h-41c-1.5,0-2.7-1.2-2.7-2.7c0-1.5,1.2-2.7,2.7-2.7h41c1.5,0,2.7,1.2,2.7,2.7
				C93.8,71.9,92.6,73.1,91.1,73.1z"/>
		</g>
	</g>
</g>
</svg>
