<?xml version="1.0" encoding="utf-8"?>
<!-- Generator: Adobe Illustrator 22.1.0, SVG Export Plug-In . SVG Version: 6.00 Build 0)  -->
<svg version="1.1" id="Capa_1" xmlns="http://www.w3.org/2000/svg" xmlns:xlink="http://www.w3.org/1999/xlink" x="0px" y="0px"
	 viewBox="0 0 141.7 141.7" style="enable-background:new 0 0 141.7 141.7;" xml:space="preserve">
<style type="text/css">
	.st0{fill:#FFFFFF;}
</style>
<g>
	<path class="st0" d="M10.7,76.9H131c3.2,0,5.9-2.6,5.9-5.9c0-3.2-2.6-5.9-5.9-5.9H10.7c-3.2,0-5.9,2.6-5.9,5.9
		C4.9,74.3,7.5,76.9,10.7,76.9"/>
	<path class="st0" d="M14.2,75.8l59.7-44.2c2.6-1.9,3.1-5.6,1.2-8.2c-1.9-2.6-5.6-3.1-8.2-1.2L7.2,66.4c-2.6,1.9-3.1,5.6-1.2,8.2
		S11.6,77.7,14.2,75.8"/>
	<path class="st0" d="M73.9,110.5L14.2,66.4C11.6,64.4,7.9,65,6,67.6c-1.9,2.6-1.4,6.3,1.2,8.2l59.7,44.2c2.6,1.9,6.3,1.4,8.2-1.2
		C77,116.1,76.5,112.5,73.9,110.5"/>
</g>
</svg>
