<svg width="142" height="142" viewBox="0 0 142 142" fill="none" xmlns="http://www.w3.org/2000/svg">
<path fill-rule="evenodd" clip-rule="evenodd" d="M116.893 7.1414C119.466 10.617 118.734 15.5202 115.259 18.093L35.5586 77.093C32.083 79.6659 27.1798 78.9342 24.6069 75.4586C22.0341 71.983 22.7658 67.0798 26.2414 64.507L105.941 5.50695C109.417 2.93408 114.32 3.66585 116.893 7.1414Z" fill="white"/>
<path fill-rule="evenodd" clip-rule="evenodd" d="M24.6107 66.1363C27.1864 62.6628 32.0902 61.935 35.5637 64.5107L115.264 123.611C118.737 126.186 119.465 131.09 116.889 134.564C114.314 138.037 109.41 138.765 105.936 136.189L26.2363 77.0893C22.7628 74.5136 22.035 69.6098 24.6107 66.1363Z" fill="white"/>
</svg>
