<svg width="142" height="142" viewBox="0 0 142 142" fill="none" xmlns="http://www.w3.org/2000/svg">
<path fill-rule="evenodd" clip-rule="evenodd" d="M116.889 66.1363C119.465 69.6098 118.737 74.5136 115.264 77.0893L35.5637 136.189C32.0902 138.765 27.1864 138.037 24.6107 134.564C22.035 131.09 22.7628 126.186 26.2363 123.611L105.936 64.5107C109.41 61.935 114.314 62.6628 116.889 66.1363Z" fill="white"/>
<path fill-rule="evenodd" clip-rule="evenodd" d="M24.6069 7.1414C27.1798 3.66585 32.083 2.93408 35.5586 5.50695L115.259 64.507C118.734 67.0798 119.466 71.983 116.893 75.4586C114.32 78.9342 109.417 79.6659 105.941 77.093L26.2414 18.093C22.7658 15.5202 22.0341 10.617 24.6069 7.1414Z" fill="white"/>
</svg>
