<?xml version="1.0" encoding="utf-8"?>
<!-- Generator: Adobe Illustrator 22.1.0, SVG Export Plug-In . SVG Version: 6.00 Build 0)  -->
<svg version="1.1" id="Capa_1" xmlns="http://www.w3.org/2000/svg" xmlns:xlink="http://www.w3.org/1999/xlink" x="0px" y="0px"
	 viewBox="0 0 141.7 141.7" style="enable-background:new 0 0 141.7 141.7;" xml:space="preserve">
<style type="text/css">
	.st0{fill:#FFFFFF;}
</style>
<g>
	<path class="st0" d="M65.5,49.5l58.8,54.1c3.2,2.9,8.1,2.7,11-0.5c2.9-3.2,2.7-8.1-0.5-11L76.1,38.1c-3.2-2.9-8.1-2.7-11,0.5
		C62.2,41.7,62.4,46.6,65.5,49.5"/>
	<path class="st0" d="M17.4,103.6l58.7-54.1c3.2-2.9,3.4-7.8,0.4-11c-2.9-3.2-7.8-3.4-11-0.4L6.8,92.2c-3.2,2.9-3.4,7.8-0.4,11
		S14.2,106.5,17.4,103.6"/>
</g>
</svg>
