<svg width="142" height="142" viewBox="0 0 142 142" fill="none" xmlns="http://www.w3.org/2000/svg">
<path d="M65.5 92.1609L124.3 38.0609C127.5 35.1609 132.4 35.3609 135.3 38.5609C138.2 41.7609 138 46.6609 134.8 49.5609L76.1 103.561C72.9 106.461 68 106.261 65.1 103.061C62.2 99.9609 62.4 95.0609 65.5 92.1609Z" fill="white"/>
<path d="M17.4 38.0609L76.1 92.1609C79.3 95.0609 79.5 99.9609 76.5 103.161C73.6 106.361 68.7 106.561 65.5 103.561L6.8 49.4609C3.6 46.5609 3.4 41.6609 6.4 38.4609C9.4 35.2609 14.2 35.1609 17.4 38.0609Z" fill="white"/>
</svg>
