<svg width="142" height="142" viewBox="0 0 142 142" fill="none" xmlns="http://www.w3.org/2000/svg">
<path fill-rule="evenodd" clip-rule="evenodd" d="M130.949 8.65407C133.459 9.91891 135.042 12.4896 135.042 15.3V127.6C135.042 130.412 133.458 132.983 130.947 134.247C128.435 135.512 125.426 135.253 123.168 133.578L47.3675 77.3783C45.4733 75.9739 44.3568 73.7549 44.3578 71.3968C44.3588 69.0388 45.4772 66.8207 47.3726 65.4179L123.173 9.31791C125.432 7.64602 128.44 7.38924 130.949 8.65407ZM64.3029 71.4053L120.158 112.817V30.0669L64.3029 71.4053Z" fill="white"/>
<path fill-rule="evenodd" clip-rule="evenodd" d="M14.2 4.55775C18.3102 4.55775 21.6423 7.88976 21.6423 12V130.8C21.6423 134.91 18.3102 138.242 14.2 138.242C10.0898 138.242 6.75775 134.91 6.75775 130.8V12C6.75775 7.88976 10.0898 4.55775 14.2 4.55775Z" fill="white"/>
</svg>
