<svg width="142" height="142" viewBox="0 0 142 142" fill="none" xmlns="http://www.w3.org/2000/svg">
<path fill-rule="evenodd" clip-rule="evenodd" d="M70.7 9.8799C37.11 9.8799 9.87989 37.11 9.87989 70.7C9.87989 104.29 37.11 131.52 70.7 131.52C104.29 131.52 131.52 104.29 131.52 70.7C131.52 37.11 104.29 9.8799 70.7 9.8799ZM3.72009 70.7C3.72009 33.708 33.708 3.7201 70.7 3.7201C107.692 3.7201 137.68 33.708 137.68 70.7C137.68 107.692 107.692 137.68 70.7 137.68C33.708 137.68 3.72009 107.692 3.72009 70.7Z" fill="white"/>
<path fill-rule="evenodd" clip-rule="evenodd" d="M89.2778 52.1222C90.4806 53.325 90.4806 55.275 89.2778 56.4778L56.4778 89.2778C55.275 90.4806 53.325 90.4806 52.1222 89.2778C50.9194 88.075 50.9194 86.125 52.1222 84.9222L84.9222 52.1222C86.1249 50.9194 88.075 50.9194 89.2778 52.1222Z" fill="white"/>
<path fill-rule="evenodd" clip-rule="evenodd" d="M52.1222 52.1222C53.325 50.9194 55.275 50.9194 56.4778 52.1222L89.2778 84.9222C90.4806 86.125 90.4806 88.075 89.2778 89.2778C88.075 90.4806 86.1249 90.4806 84.9222 89.2778L52.1222 56.4778C50.9194 55.275 50.9194 53.325 52.1222 52.1222Z" fill="white"/>
</svg>
