<svg width="142" height="142" viewBox="0 0 142 142" fill="none" xmlns="http://www.w3.org/2000/svg">
<path d="M103 104.2H38.3C37.3 104.2 36.4 103.4 36.4 102.3C36.4 101.2 37.3 100.4 38.3 100.4H103C104 100.4 104.9 101.2 104.9 102.3C104.9 103.4 104 104.2 103 104.2ZM97.4 91.5H70.6C70.4 91.5 70.2 91.5 70 91.4H43.8C43.2 91.4 42.5 91.1 42.2 90.5C41.9 90 41.8 89.3 42.1 88.7C43.5 85.7 44.9 81.1 43.4 76.5C42.2 72.1 38.7 68.7 32.9 66C32.7 66 32.6 65.9 32.5 65.8C29.7 65.2 21 63.9 11.5 70.7C10.9 71.1 10.1 71.2 9.39998 70.8C8.79998 70.4 8.39998 69.7 8.49998 69C9.49998 60.5 15.1 40.8 46.8 40.8C47.5 40.8 62.7 41 70.8 58.3C70.9 58 71.1 57.7 71.2 57.5V57.4C71.3 57.1 71.4 57 71.5 56.8L71.6 56.7C71.7 56.4 71.8 56.2 71.9 56L72 55.9C72 55.8 72 55.8 72.1 55.7C72.2 55.6 72.3 55.4 72.4 55.2C72.4 55.1 72.5 55 72.5 55C72.6 54.9 72.7 54.7 72.8 54.5C72.8 54.4 72.9 54.3 72.9 54.3C73 54.2 73.1 54 73.2 53.9V53.8C73.2 53.7 73.2 53.7 73.3 53.6C73.4 53.5 73.5 53.3 73.6 53.2L73.7 53.1C73.7 53 73.7 53 73.8 53C73.9 52.8 74 52.6 74.2 52.4L74.3 52.3C74.4 52.1 74.5 52 74.6 51.9L74.7 51.8C74.8 51.6 75 51.5 75.1 51.3L75.2 51.2C75.3 51 75.5 50.9 75.6 50.7L75.7 50.6C75.8 50.4 76 50.3 76.1 50.1L76.7 49.5C76.8 49.4 77 49.1 77.3 48.9L78.2 48C78.4 47.8 78.6 47.6 79 47.3C79.1 47.2 79.3 47 79.5 46.9C79.6 46.8 79.8 46.6 80 46.5C80.1 46.4 80.3 46.2 80.6 46L80.7 45.9C80.8 45.8 81 45.7 81.1 45.6L81.2 45.5C81.3 45.4 81.5 45.2 81.7 45.1C81.9 45 82 44.9 82.2 44.8C82.4 44.7 82.5 44.6 82.7 44.5C82.9 44.4 83 44.3 83.2 44.2C83.4 44.1 83.5 44 83.7 43.9C83.9 43.8 84 43.7 84.2 43.6C84.4 43.5 84.5 43.4 84.7 43.3C84.9 43.2 85.1 43.1 85.4 43H85.5C85.5 43 85.5 43 85.6 43C85.8 42.9 86 42.8 86.3 42.7H86.4H86.5C86.7 42.6 86.8 42.5 87 42.5C87.2 42.4 87.3 42.4 87.5 42.3C87.6 42.3 87.6 42.3 87.7 42.2C87.8 42.2 87.9 42.1 87.9 42.1C88 42 88.2 42 88.3 42C88.4 42 88.5 41.9 88.7 41.9C88.9 41.8 89.2 41.8 89.4 41.8C89.5 41.8 89.7 41.7 89.9 41.7C90 41.7 90.1 41.7 90.2 41.6C90.3 41.5 90.5 41.5 90.7 41.5C90.7 41.5 90.8 41.5 90.9 41.5C91.1 41.4 91.2 41.4 91.4 41.3C91.6 41.2 91.8 41.2 92.2 41.2C92.3 41.2 92.5 41.1 92.8 41.1C93 41.1 93.2 41 93.5 41C93.7 40.9 93.9 40.9 94.1 40.9H94.5C94.7 40.9 94.9 40.9 95 40.8C95.2 40.8 95.4 40.8 95.5 40.8C109 40.8 119.3 44.5 126 51.7C131.8 57.9 133.4 65.2 133.8 69C133.9 69.7 133.5 70.5 132.9 70.8C132.3 71.2 131.4 71.1 130.8 70.7C120 63 110.5 65.6 109.7 65.8C109.6 65.8 109.6 65.9 109.5 65.9C103.4 68.5 99.7 71.9 98.4 76.5C96.9 81.4 98.6 86.3 99.7 88.8C100 89.4 99.9 90.1 99.6 90.6C98.6 91.2 98 91.5 97.4 91.5ZM72.5 87.7H94.6C93.6 84.5 92.8 80 94.1 75.5C95.8 69.8 100 65.6 107.1 62.6C107.3 62.4 107.6 62.3 107.9 62.3C109.7 61.8 118.3 59.8 128.5 65.4C126.3 57.1 118.9 44.7 94.9 44.7C94.6 44.7 94.2 44.8 93.8 44.8H93.7C93.4 44.9 93.2 44.9 93 44.9C92.9 44.9 92.7 45 92.4 45C92.2 45 92 45.1 91.8 45.1C91.6 45.2 91.3 45.3 91.1 45.3C91 45.3 90.9 45.3 90.8 45.4C90.7 45.5 90.5 45.5 90.3 45.5C90.2 45.5 90 45.6 89.8 45.6C89.7 45.6 89.5 45.7 89.2 45.7C89.1 45.7 89 45.8 88.9 45.8H88.8C88.7 45.8 88.6 45.9 88.5 45.9C88.3 46 88.2 46 88 46.1C88.1 46 88 46 88 46C87.9 46 87.9 46 87.8 46.1C87.7 46.2 87.5 46.2 87.4 46.3C87.3 46.4 87.1 46.4 86.9 46.5C86.7 46.6 86.6 46.7 86.5 46.7C86.4 46.8 86.2 46.8 86 46.9C86 46.9 85.9 46.9 85.9 47C85.7 47.1 85.6 47.2 85.4 47.3C85.2 47.4 85.1 47.5 84.9 47.6C84.7 47.7 84.6 47.8 84.4 47.9C84.2 48 84.1 48.1 83.9 48.2C83.7 48.3 83.6 48.4 83.4 48.5C83.3 48.5 83.3 48.6 83.2 48.6C83.1 48.7 82.9 48.9 82.7 49C82.5 49.2 82.3 49.3 82.1 49.5C82 49.6 81.8 49.8 81.6 49.9C81.5 50 81.3 50.2 81.1 50.3C81 50.4 80.8 50.6 80.5 50.8L80.4 50.9L79.4 51.9C79.3 52 79.3 52 79.2 52.1C79.1 52.2 79 52.3 78.9 52.4L78.4 52.9C78.4 52.9 78.4 53 78.3 53C78.2 53.2 78 53.3 77.9 53.5C77.9 53.5 77.9 53.6 77.8 53.6C77.7 53.8 77.5 53.9 77.4 54.1C77.4 54.1 77.4 54.2 77.3 54.2C77.2 54.3 77.1 54.4 77.1 54.5C77 54.6 77 54.7 76.9 54.8C76.8 55.1 76.6 55.3 76.5 55.5C76.4 55.8 76.2 56 76.1 56.2C76 56.3 75.9 56.5 75.8 56.7C75.8 56.8 75.7 56.9 75.7 56.9C75.6 57 75.5 57.2 75.4 57.4C75.4 57.5 75.3 57.5 75.3 57.6C75.2 57.9 75.1 58.1 75 58.2V58.1C74.9 58.4 74.8 58.6 74.7 58.8L74.6 58.9C74.6 59 74.6 59 74.5 59.1C74.5 59.2 74.4 59.3 74.3 59.4C74.3 59.5 74.2 59.6 74.2 59.7C74.1 60 73.9 60.3 73.8 60.5L73.7 60.6C73.6 60.8 73.6 60.8 73.5 61C73.4 61.1 73.4 61.2 73.3 61.4C73.2 61.6 73.2 61.7 73.1 61.9C73 62 73 62.1 72.9 62.3L72.6 63.2C72.5 63.4 72.5 63.5 72.4 63.7V87.7H72.5ZM46.6 87.6H68.7V63.5C62.2 44.7 47.3 44.5 46.7 44.5C37.8 44.5 17.5 46.6 12.9 65.2C22.5 60 30.9 61.4 33.5 62.1C33.7 62.1 33.9 62.2 34.1 62.3C34.1 62.3 34.1 62.3 34.2 62.3C41.2 65.5 45.5 69.8 47 75.3C48.4 79.9 47.8 84.2 46.6 87.6ZM82 49.5C82 49.5 81.9 49.5 82 49.5C81.9 49.5 82 49.5 82 49.5ZM132.7 81.8C129.9 81.8 127.7 79.6 127.7 76.8C127.7 74 129.9 71.8 132.7 71.8C135.5 71.8 137.7 74 137.7 76.8C137.7 79.6 135.5 81.8 132.7 81.8ZM132.7 75.6C132 75.6 131.5 76.2 131.5 76.8C131.5 77.5 132.1 78 132.7 78C133.4 78 133.9 77.4 133.9 76.8C133.9 76.1 133.4 75.6 132.7 75.6ZM8.59998 81.8C5.79998 81.8 3.59998 79.6 3.59998 76.8C3.59998 74 5.79998 71.8 8.59998 71.8C11.4 71.8 13.6 74 13.6 76.8C13.6 79.6 11.4 81.8 8.59998 81.8ZM8.59998 75.6C7.89998 75.6 7.39998 76.2 7.39998 76.8C7.39998 77.5 7.99998 78 8.59998 78C9.19998 78 9.79998 77.4 9.79998 76.8C9.79998 76.1 9.29998 75.6 8.59998 75.6Z" fill="white"/>
</svg>
