<?xml version="1.0" encoding="utf-8"?>
<!-- Generator: Adobe Illustrator 22.1.0, SVG Export Plug-In . SVG Version: 6.00 Build 0)  -->
<svg version="1.1" id="Capa_1" xmlns="http://www.w3.org/2000/svg" xmlns:xlink="http://www.w3.org/1999/xlink" x="0px" y="0px"
	 viewBox="0 0 141.7 141.7" style="enable-background:new 0 0 141.7 141.7;" xml:space="preserve">
<style type="text/css">
	.st0{fill:#FFFFFF;}
</style>
<g>
	<g>
		<path class="st0" d="M12.3,140.2c-2.8,0-5.6-1.1-7.7-3.2c-4.3-4.3-4.3-11.2,0-15.5L121.3,4.8c4.3-4.3,11.2-4.3,15.5,0
			c4.3,4.3,4.3,11.2,0,15.5L20.1,137C17.9,139.1,15.1,140.2,12.3,140.2z"/>
	</g>
	<g>
		<path class="st0" d="M129,140.2c-2.8,0-5.6-1.1-7.7-3.2L4.6,20.3C0.3,16,0.3,9.1,4.6,4.8c4.3-4.3,11.2-4.3,15.5,0l116.7,116.7
			c4.3,4.3,4.3,11.2,0,15.5C134.6,139.1,131.8,140.2,129,140.2z"/>
	</g>
</g>
</svg>
