<svg width="142" height="142" viewBox="0 0 142 142" fill="none" xmlns="http://www.w3.org/2000/svg">
<path fill-rule="evenodd" clip-rule="evenodd" d="M5.348 89.4V108.1C5.348 109.042 6.15788 109.852 7.1 109.852H13.5V111.148H7.1C5.44212 111.148 4.052 109.758 4.052 108.1V89.4H5.348Z" fill="white"/>
<path fill-rule="evenodd" clip-rule="evenodd" d="M7.00003 31.848C6.05791 31.848 5.24803 32.6579 5.24803 33.6V89.4H3.95203V33.6C3.95203 31.9421 5.34215 30.552 7.00003 30.552H123.1C124.758 30.552 126.148 31.9421 126.148 33.6V69.4H124.852V33.6C124.852 32.6579 124.042 31.848 123.1 31.848H7.00003Z" fill="white"/>
<path fill-rule="evenodd" clip-rule="evenodd" d="M43 68.748C42.3355 68.748 41.748 69.2799 41.748 70V108.6C41.748 109.265 42.2799 109.852 43 109.852H104C104.742 109.852 105.252 109.342 105.252 108.6V70C105.252 69.3355 104.72 68.748 104 68.748H43ZM40.452 70C40.452 68.5201 41.6646 67.452 43 67.452H104C105.48 67.452 106.548 68.6645 106.548 70V108.6C106.548 110.058 105.458 111.148 104 111.148H43C41.5201 111.148 40.452 109.935 40.452 108.6V70Z" fill="white"/>
<path fill-rule="evenodd" clip-rule="evenodd" d="M115.7 75.248C115.035 75.248 114.448 75.7799 114.448 76.5V108.6C114.448 109.265 114.98 109.852 115.7 109.852H135.4C136.065 109.852 136.652 109.32 136.652 108.6V76.5C136.652 75.8579 136.042 75.248 135.4 75.248H115.7ZM113.152 76.5C113.152 75.0201 114.365 73.952 115.7 73.952H135.4C136.758 73.952 137.948 75.1421 137.948 76.5V108.6C137.948 110.08 136.735 111.148 135.4 111.148H115.7C114.22 111.148 113.152 109.935 113.152 108.6V76.5Z" fill="white"/>
<path fill-rule="evenodd" clip-rule="evenodd" d="M32.852 89.6C32.852 88.8178 32.2206 88.2892 31.6645 88.3448L31.6323 88.348H23.7C23.0354 88.348 22.448 88.8799 22.448 89.6V108.6C22.448 109.265 22.9799 109.852 23.7 109.852H31.6C32.2645 109.852 32.852 109.32 32.852 108.6V89.6ZM31.5704 87.052C32.9981 86.9313 34.148 88.1936 34.148 89.6V108.6C34.148 110.08 32.9354 111.148 31.6 111.148H23.7C22.2201 111.148 21.152 109.935 21.152 108.6V89.6C21.152 88.1201 22.3645 87.052 23.7 87.052H31.5704Z" fill="white"/>
</svg>
