<svg width="142" height="142" viewBox="0 0 142 142" fill="none" xmlns="http://www.w3.org/2000/svg">
<path fill-rule="evenodd" clip-rule="evenodd" d="M136.157 72.352C137.621 75.0712 138.016 78.3711 137.281 82.1065L137.281 82.109C136.666 85.2161 134.859 87.4677 132.578 89.1658C130.379 90.803 127.605 92.0278 124.758 93.1289C123.37 93.6654 121.94 94.1841 120.477 94.7146C115.705 96.4449 110.588 98.3004 105.496 101.305C104.002 102.186 102.077 101.689 101.195 100.196C100.314 98.7018 100.811 96.7765 102.304 95.8953C107.954 92.5624 113.822 90.4385 118.663 88.6863C120.031 88.1912 121.317 87.7257 122.492 87.2711C125.27 86.1972 127.358 85.222 128.828 84.128C130.215 83.0953 130.883 82.0848 131.119 80.8927C131.633 78.2785 131.266 76.5162 130.627 75.3293C129.982 74.1311 128.882 73.1894 127.348 72.5458C124.15 71.2045 119.614 71.4182 116.192 72.9624C114.611 73.6757 112.751 72.9724 112.038 71.3915C111.324 69.8107 112.028 67.9509 113.608 67.2376C118.386 65.0818 124.75 64.6455 129.777 66.7542C132.355 67.8356 134.699 69.6439 136.157 72.352Z" fill="white"/>
<path fill-rule="evenodd" clip-rule="evenodd" d="M46.1795 11.7795C47.4059 10.5532 49.3942 10.5532 50.6205 11.7795C56.5738 17.7328 55.4093 25.4143 51.9509 30.2314L51.9281 30.2628C49.842 33.0939 49.5875 37.9944 52.7924 40.8585C54.0857 42.0141 54.1972 43.9992 53.0416 45.2924C51.8859 46.5856 49.9008 46.6972 48.6076 45.5415C42.4203 40.0125 43.3557 31.3278 46.8588 26.5551C48.992 23.5732 49.4213 19.4623 46.1795 16.2205C44.9532 14.9941 44.9532 13.0059 46.1795 11.7795Z" fill="white"/>
<path fill-rule="evenodd" clip-rule="evenodd" d="M62.0344 4.83479C63.175 3.5283 65.1587 3.39381 66.4652 4.5344C70.2198 7.8122 71.9818 11.7353 72.0151 15.6986C72.0477 19.5753 70.4261 23.1416 68.0731 25.8566L68.05 25.8829C65.1119 29.1978 64.6422 35.013 69.3903 38.5924C70.7752 39.6364 71.0516 41.6054 70.0076 42.9903C68.9636 44.3752 66.9946 44.6516 65.6097 43.6076C57.3652 37.3925 58.4861 27.2205 63.337 21.7318C64.8777 19.9491 65.7522 17.8202 65.7349 15.7514C65.7182 13.7647 64.8802 11.4878 62.3348 9.2656C61.0283 8.12502 60.8938 6.14128 62.0344 4.83479Z" fill="white"/>
<path fill-rule="evenodd" clip-rule="evenodd" d="M80.5795 11.7795C81.8059 10.5532 83.7941 10.5532 85.0205 11.7795C90.9738 17.7328 89.8093 25.4143 86.3509 30.2314L86.3281 30.2628C84.242 33.0939 83.9875 37.9944 87.1924 40.8585C88.4856 42.0141 88.5972 43.9992 87.4415 45.2924C86.2859 46.5856 84.3008 46.6972 83.0076 45.5415C76.8203 40.0125 77.7557 31.3278 81.2588 26.5551C83.392 23.5732 83.8213 19.4623 80.5795 16.2205C79.3532 14.9941 79.3532 13.0059 80.5795 11.7795Z" fill="white"/>
<path fill-rule="evenodd" clip-rule="evenodd" d="M14.4742 58.2994C14.629 56.689 15.9821 55.4597 17.6 55.4597H115.8C117.422 55.4597 118.778 56.6954 118.927 58.3108C119.804 67.7933 116.305 80.3125 110.732 91.4207C105.162 102.522 97.1271 112.999 88.225 117.945C86.709 118.787 84.7972 118.241 83.9549 116.725C83.1127 115.209 83.6589 113.297 85.175 112.455C92.4729 108.401 99.7879 99.2282 105.118 88.6043C109.828 79.2178 112.68 69.3124 112.778 61.7402H20.617C20.7021 68.6964 23.1027 78.2779 27.4905 87.586C32.5063 98.2264 39.7886 107.803 48.2162 112.45C49.735 113.287 50.2873 115.197 49.45 116.716C48.6126 118.235 46.7026 118.787 45.1838 117.95C35.1114 112.397 27.0937 101.474 21.8095 90.264C16.5308 79.0658 13.6495 66.8756 14.4742 58.2994Z" fill="white"/>
<path fill-rule="evenodd" clip-rule="evenodd" d="M4.09992 113.775C4.69658 113.068 5.57475 112.66 6.5 112.66H126.8C127.725 112.66 128.603 113.068 129.2 113.775C129.797 114.482 130.051 115.416 129.895 116.329C129.68 117.588 128.979 118.717 128.353 119.557C127.668 120.477 126.783 121.431 125.786 122.373C123.788 124.264 121.136 126.306 118.189 128.185C112.427 131.859 104.871 135.34 98.4 135.34H34.9C28.092 135.34 20.543 131.874 14.8301 128.173C11.9182 126.287 9.32708 124.238 7.38085 122.34C6.4103 121.394 5.55244 120.438 4.8891 119.517C4.27841 118.669 3.61415 117.556 3.40454 116.329C3.24882 115.416 3.50326 114.482 4.09992 113.775ZM12.9542 118.94C14.4091 120.216 16.2156 121.587 18.2449 122.902C23.607 126.376 29.908 129.06 34.9 129.06H98.4C103.029 129.06 109.323 126.391 114.811 122.89C116.866 121.58 118.712 120.213 120.208 118.94H12.9542Z" fill="white"/>
</svg>
