<svg width="142" height="142" viewBox="0 0 142 142" fill="none" xmlns="http://www.w3.org/2000/svg">
<path fill-rule="evenodd" clip-rule="evenodd" d="M96.983 40.8C96.983 39.2442 98.2442 37.9829 99.8 37.9829H123.9C131.439 37.9829 137.717 44.1276 137.717 51.8V83.3C137.717 108.247 117.464 128.617 92.5 128.617C90.9442 128.617 89.683 127.356 89.683 125.8C89.683 124.244 90.9442 122.983 92.5 122.983C114.336 122.983 132.083 105.153 132.083 83.3V51.8C132.083 47.2724 128.361 43.617 123.9 43.617H99.8C98.2442 43.617 96.983 42.3558 96.983 40.8Z" fill="white"/>
<path fill-rule="evenodd" clip-rule="evenodd" d="M55.9818 105.194C57.2553 104.3 59.0122 104.608 59.9059 105.882C67.3904 116.547 79.5385 122.983 92.5 122.983C94.0558 122.983 95.3171 124.244 95.3171 125.8C95.3171 127.356 94.0558 128.617 92.5 128.617C77.6615 128.617 63.8096 121.253 55.2941 109.118C54.4004 107.845 54.7083 106.088 55.9818 105.194Z" fill="white"/>
<path fill-rule="evenodd" clip-rule="evenodd" d="M123.247 69.3643C124.372 70.4397 124.411 72.2229 123.336 73.3472C120.449 76.3648 115.811 77.917 110.9 77.917C109.344 77.917 108.083 76.6558 108.083 75.1C108.083 73.5442 109.344 72.2829 110.9 72.2829C114.789 72.2829 117.751 71.0352 119.264 69.4528C120.34 68.3285 122.123 68.2889 123.247 69.3643Z" fill="white"/>
<path fill-rule="evenodd" clip-rule="evenodd" d="M98.5528 69.3643C99.6771 68.2889 101.46 68.3285 102.536 69.4528C104.044 71.0295 107.101 72.2829 110.9 72.2829C112.456 72.2829 113.717 73.5442 113.717 75.1C113.717 76.6558 112.456 77.917 110.9 77.917C106.099 77.917 101.356 76.3705 98.4643 73.3472C97.3889 72.2229 97.4285 70.4397 98.5528 69.3643Z" fill="white"/>
<path fill-rule="evenodd" clip-rule="evenodd" d="M92.5 101.117C86.5174 101.117 80.7846 103.345 76.1868 107.492C75.0315 108.534 73.2502 108.442 72.2082 107.287C71.1661 106.131 71.2579 104.35 72.4132 103.308C78.0154 98.2552 85.0826 95.483 92.5 95.483C99.9174 95.483 106.985 98.2552 112.587 103.308C113.742 104.35 113.834 106.131 112.792 107.287C111.75 108.442 109.969 108.534 108.813 107.492C104.215 103.345 98.4826 101.117 92.5 101.117Z" fill="white"/>
<path fill-rule="evenodd" clip-rule="evenodd" d="M16.7 19.017C12.1558 19.017 8.51705 22.6558 8.51705 27.2V58.7C8.51705 80.5528 26.2644 98.3829 48.1 98.3829C69.9399 98.3829 87.683 80.6485 87.683 58.7V27.2C87.683 22.6724 83.9609 19.017 79.5 19.017H16.7ZM2.88295 27.2C2.88295 19.5442 9.04419 13.3829 16.7 13.3829H79.5C87.0391 13.3829 93.317 19.5276 93.317 27.2V58.7C93.317 83.7515 73.0601 104.017 48.1 104.017C23.1356 104.017 2.88295 83.6472 2.88295 58.7V27.2Z" fill="white"/>
<path fill-rule="evenodd" clip-rule="evenodd" d="M30.2 44.4171C26.3114 44.4171 23.3493 45.6648 21.8357 47.2472C20.7603 48.3715 18.9771 48.4111 17.8528 47.3357C16.7285 46.2603 16.6889 44.4771 17.7643 43.3528C20.6507 40.3352 25.2886 38.783 30.2 38.783C35.1114 38.783 39.7493 40.3352 42.6357 43.3528C43.7111 44.4771 43.6715 46.2603 42.5472 47.3357C41.4229 48.4111 39.6397 48.3715 38.5643 47.2472C37.0507 45.6648 34.0886 44.4171 30.2 44.4171Z" fill="white"/>
<path fill-rule="evenodd" clip-rule="evenodd" d="M66.5 44.4171C62.6114 44.4171 59.6493 45.6648 58.1357 47.2472C57.0603 48.3715 55.2771 48.4111 54.1528 47.3357C53.0285 46.2603 52.9889 44.4771 54.0643 43.3528C56.9507 40.3352 61.5886 38.783 66.5 38.783C71.4114 38.783 76.0493 40.3352 78.9357 43.3528C80.0111 44.4771 79.9715 46.2603 78.8472 47.3357C77.7229 48.4111 75.9397 48.3715 74.8643 47.2472C73.3507 45.6648 70.3886 44.4171 66.5 44.4171Z" fill="white"/>
<path fill-rule="evenodd" clip-rule="evenodd" d="M68.3918 74.4132C69.4339 75.5685 69.3421 77.3498 68.1868 78.3919C62.5846 83.4448 55.5174 86.2171 48.1 86.2171C46.5442 86.2171 45.2829 84.9558 45.2829 83.4C45.2829 81.8442 46.5442 80.583 48.1 80.583C54.0826 80.583 59.8154 78.3552 64.4132 74.2081C65.5685 73.1661 67.3498 73.2579 68.3918 74.4132Z" fill="white"/>
<path fill-rule="evenodd" clip-rule="evenodd" d="M27.8081 74.4132C28.8502 73.2579 30.6315 73.1661 31.7868 74.2081C36.3846 78.3552 42.1174 80.583 48.1 80.583C49.6558 80.583 50.917 81.8442 50.917 83.4C50.917 84.9558 49.6558 86.2171 48.1 86.2171C40.6826 86.2171 33.6154 83.4448 28.0132 78.3919C26.8579 77.3498 26.7661 75.5685 27.8081 74.4132Z" fill="white"/>
</svg>
