<svg width="136" height="135" viewBox="0 0 136 135" fill="none" xmlns="http://www.w3.org/2000/svg">
<path d="M11.9 134.2C11.3 134.2 10.8 134.1 10.3 134C7.89998 133.7 5.79998 132.7 4.09998 131.1C1.19998 128.2 0.19998 124.1 1.49998 120.4L13 81.4L13.4 80.6C14.3 79 14.9 78.3 15.4 77.8L85.1 8C96.1 -2.8 114.8 -2.2 126.2 9.2C137.6 20.7 138.1 39.5 127.4 50.2L56.8 120.8L56.5 121C55.4 122 54 122.6 52.5 122.8L13.7 134.2H13.2C12.7 134.2 12.3 134.2 11.9 134.2ZM27.4 88.1L19.2 116.2L47.4 107.9L116.2 39C120.7 34.5 120.1 25.4 115 20.2C109.9 15.1 100.8 14.5 96.2 19.1L27.4 88.1Z" fill="white"/>
</svg>
