<svg width="142" height="142" viewBox="0 0 142 142" fill="none" xmlns="http://www.w3.org/2000/svg">
<path d="M70.7 116.5C51 116.5 34.4 106.7 23.9 98.4C14.1 90.7 3.79999 79.4 3.79999 73.6C3.79999 67.7 14.2 56.4 23.9 48.8C34.4 40.5 51 30.7 70.7 30.7C90 30.7 106.7 40.9 117.4 49.4C125.6 55.9 137.7 68.1 137.7 73.6C137.7 79.3 127.2 90.6 117.2 98.4C106.6 106.6 89.9 116.5 70.7 116.5ZM12.2 73.6C14.4 79.7 39.8 108.1 70.7 108.1C100.4 108.1 126.3 79.8 129.1 73.7C125.7 66.9 99.4 39.1 70.7 39.1C39.8 39.1 14.4 67.5 12.2 73.6Z" fill="white"/>
<path d="M65.1 90.8C60.1 90.8 56.1 86.9 56.1 82V65.6C56.1 60.8 60.1 56.8 65.1 56.8C66.6 56.8 68.1 57.2 69.3 58L84.6 66.1C87.6 67.7 89.3 70.6 89.3 74C89.3 77.1 87.6 80.1 84.8 81.8L84.6 81.9L68.2 90.6H67.2C67.1 90.6 67 90.6 66.8 90.6C66.4 90.7 65.8 90.8 65.1 90.8ZM65 65.2C64.6 65.2 64.4 65.5 64.4 65.6V82C64.4 82.2 64.6 82.4 65 82.4C65.1 82.4 65.3 82.4 65.5 82.3C65.6 82.3 65.8 82.3 65.9 82.2L80.5 74.5C80.8 74.3 80.9 74.1 80.9 73.9C80.9 73.6 80.8 73.5 80.6 73.4L65 65.2Z" fill="white"/>
</svg>
