<svg width="142" height="142" viewBox="0 0 142 142" fill="none" xmlns="http://www.w3.org/2000/svg">
<path fill-rule="evenodd" clip-rule="evenodd" d="M14.4 9.906C11.6945 9.906 9.40599 12.1945 9.40599 14.9V55C9.40599 56.4945 8.19447 57.706 6.69999 57.706C5.20551 57.706 3.99399 56.4945 3.99399 55V14.9C3.99399 9.20552 8.70551 4.494 14.4 4.494H55C56.4945 4.494 57.706 5.70552 57.706 7.2C57.706 8.69449 56.4945 9.906 55 9.906H14.4Z" fill="white"/>
<path fill-rule="evenodd" clip-rule="evenodd" d="M6.69999 84.994C8.19447 84.994 9.40599 86.2055 9.40599 87.7V128.1C9.40599 130.806 11.6945 133.094 14.4 133.094H55C56.4945 133.094 57.706 134.306 57.706 135.8C57.706 137.294 56.4945 138.506 55 138.506H14.4C8.70551 138.506 3.99399 133.794 3.99399 128.1V87.7C3.99399 86.2055 5.20551 84.994 6.69999 84.994Z" fill="white"/>
<path fill-rule="evenodd" clip-rule="evenodd" d="M135.3 84.994C136.795 84.994 138.006 86.2055 138.006 87.7V128.1C138.006 133.794 133.294 138.506 127.6 138.506H87.7C86.2055 138.506 84.994 137.294 84.994 135.8C84.994 134.306 86.2055 133.094 87.7 133.094H127.6C130.306 133.094 132.594 130.806 132.594 128.1V87.7C132.594 86.2055 133.806 84.994 135.3 84.994Z" fill="white"/>
<path fill-rule="evenodd" clip-rule="evenodd" d="M84.994 7.2C84.994 5.70552 86.2055 4.494 87.7 4.494H127.6C133.295 4.494 138.006 9.20552 138.006 14.9V55C138.006 56.4945 136.795 57.706 135.3 57.706C133.806 57.706 132.594 56.4945 132.594 55V14.9C132.594 12.1945 130.306 9.906 127.6 9.906H87.7C86.2055 9.906 84.994 8.69449 84.994 7.2Z" fill="white"/>
</svg>
