<svg width="142" height="142" viewBox="0 0 142 142" fill="none" xmlns="http://www.w3.org/2000/svg">
<path fill-rule="evenodd" clip-rule="evenodd" d="M70.9 10.3805C37.3103 10.3805 10.0805 37.6103 10.0805 71.2C10.0805 104.79 37.3103 132.02 70.9 132.02C104.49 132.02 131.72 104.79 131.72 71.2C131.72 37.6103 104.49 10.3805 70.9 10.3805ZM3.91956 71.2C3.91956 34.2077 33.9077 4.21955 70.9 4.21955C107.892 4.21955 137.88 34.2077 137.88 71.2C137.88 108.192 107.892 138.18 70.9 138.18C33.9077 138.18 3.91956 108.192 3.91956 71.2Z" fill="white"/>
<path d="M65.541 76.2668H73.119V73.8641C73.119 67.2103 83.839 66.0397 83.839 55.8742C83.839 48.6043 77.37 44.2916 70.4082 44.2916C63.0767 44.2916 58.8256 48.7275 58.8256 48.7275L63.1383 54.0875C63.1383 54.0875 66.2187 51.4999 69.7305 51.4999C73.119 51.4999 75.7065 53.7178 75.7065 56.6135C75.7065 62.9592 65.541 64.3762 65.541 73.3096V76.2668ZM65.541 88.8967H73.119V81.6268H65.541V88.8967Z" fill="white"/>
</svg>
