<svg width="142" height="142" viewBox="0 0 142 142" fill="none" xmlns="http://www.w3.org/2000/svg">
<path fill-rule="evenodd" clip-rule="evenodd" d="M70.27 3.03627C72.4781 3.0023 74.4113 3.7124 76.0364 4.70553L76.281 4.85501L131.085 45.9829L131.157 46.041C133.537 47.9451 135.015 50.8516 135.015 54.0378V127.638C135.015 133.253 130.228 137.753 124.9 137.753H15.9C10.2849 137.753 5.78528 132.966 5.78528 127.638V54.0378C5.78528 50.8516 7.26261 47.9451 9.64264 46.041L9.71532 45.9829L64.5596 4.82455L64.8504 4.65349C66.2796 3.81282 68.1011 3.06964 70.27 3.03627ZM70.4 15.4818L17.8148 54.9448V125.723H122.985V54.9448L70.4 15.4818Z" fill="white"/>
</svg>
