<!-- Generated by IcoMoon.io -->
<svg version="1.1" xmlns="http://www.w3.org/2000/svg" width="1024" height="1024" viewBox="0 0 1024 1024">
<title></title>
<g id="icomoon-ignore">
</g>
<path fill="#fff" d="M635.586 123.586c0 68.255-55.331 123.586-123.586 123.586s-123.586-55.331-123.586-123.586c0-68.255 55.331-123.586 123.586-123.586s123.586 55.331 123.586 123.586z"></path>
<path fill="#fff" d="M635.586 900.414c0 68.255-55.331 123.586-123.586 123.586s-123.586-55.331-123.586-123.586c0-68.255 55.331-123.586 123.586-123.586s123.586 55.331 123.586 123.586z"></path>
<path fill="#fff" d="M635.586 512c0 68.255-55.331 123.586-123.586 123.586s-123.586-55.331-123.586-123.586c0-68.255 55.331-123.586 123.586-123.586s123.586 55.331 123.586 123.586z"></path>
</svg>
