<?xml version="1.0" encoding="utf-8"?>
<!-- Generator: Adobe Illustrator 22.1.0, SVG Export Plug-In . SVG Version: 6.00 Build 0)  -->
<svg version="1.1" id="Capa_1" xmlns="http://www.w3.org/2000/svg" xmlns:xlink="http://www.w3.org/1999/xlink" x="0px" y="0px"
	 viewBox="0 0 141.7 141.7" style="enable-background:new 0 0 141.7 141.7;" xml:space="preserve">
<style type="text/css">
	.st0{fill:#FFFFFF;}
</style>
<g>
	<g>
		<path class="st0" d="M73.7,125.7c-0.8,0-1.7-0.3-2.4-0.8L33.7,97.7H16.3C8.4,97.7,1.7,91,1.7,83V59c0-8,6.7-14.7,14.7-14.7h17.4
			L71.4,17c0.7-0.5,1.5-0.8,2.4-0.8c1,0,2.1,0.5,2.9,1.2c0.8,0.8,1.2,1.8,1.1,2.8l0,36.2c6.8,1.3,12,7.3,12,14.4s-5.2,13.2-12,14.4
			v36.3c0,1-0.4,2-1.1,2.8C75.8,125.3,74.8,125.7,73.7,125.7z M72.4,121.7C72.4,121.7,72.4,121.8,72.4,121.7L72.4,121.7z
			 M74.5,120.6L74.5,120.6C74.5,120.6,74.5,120.6,74.5,120.6z M16.3,49.6C11.3,49.6,7,53.9,7,59v24c0,5.1,4.3,9.3,9.3,9.3h19.1
			l37,26.8l0-38.8h2.7c5.2,0,9.3-4.2,9.3-9.3s-4.2-9.3-9.3-9.3h-2.7V22.9l-37,26.8H16.3z M72.4,20.3C72.4,20.3,72.4,20.3,72.4,20.3
			L72.4,20.3z"/>
	</g>
</g>
<g>
	<g>
		<path class="st0" d="M109.1,87.9c-0.7,0-1.4-0.3-1.9-0.8c-1-1-1-2.7,0-3.8l28.5-28.5c1-1,2.7-1,3.8,0c1,1,1,2.7,0,3.8L111,87.1
			C110.4,87.6,109.8,87.9,109.1,87.9z"/>
	</g>
	<g>
		<path class="st0" d="M137.6,87.9c-0.7,0-1.4-0.3-1.9-0.8l-28.5-28.5c-1-1-1-2.7,0-3.8c1-1,2.7-1,3.8,0l28.5,28.5c1,1,1,2.7,0,3.8
			C138.9,87.6,138.2,87.9,137.6,87.9z"/>
	</g>
</g>
</svg>
