<svg width="142" height="142" viewBox="0 0 142 142" fill="none" xmlns="http://www.w3.org/2000/svg">
<path d="M79.1 57.1C75.3 57.1 71.7 55.2 69.7 52L60.6 37.8C57.5 32.8 58.7 26.3 63.5 22.8L85.6 6.79999C90.5 3.29999 96.3 1.99999 102.1 3.09999C107.9 4.29999 112.9 7.69999 115.9 12.5C119 17.4 119.9 23.3 118.5 29C117.1 34.8 113.5 39.5 108.3 42.4L84.5 55.7C82.9 56.6 81.1 57.1 79.1 57.1ZM98 8.09999C94.7 8.09999 91.5 9.09999 88.7 11.2L66.6 27.2C64 28.9 63.4 32.4 65 35L74.1 49.2C75.2 50.9 77 51.9 79.1 51.9C80.2 51.9 81 51.7 81.8 51.2L81.9 51.1L105.7 37.9C109.6 35.7 112.3 32.2 113.3 27.9C114.3 23.5 113.6 19.1 111.3 15.4C109 11.8 105.3 9.29999 100.9 8.39999C100 8.19999 99 8.09999 98 8.09999Z" fill="white"/>
<path d="M50.5 74.9C49 74.9 47.6 74.7 46.3 74.4C41.4 73.4 37 70.3 34.4 66C31.7 61.9 30.8 56.7 31.9 51.7C32.9 46.8 35.9 42.6 40.2 39.7L48.9 34C51.4 32.6 54.5 33.3 56 35.7L71 59.3C72.4 61.7 71.7 64.8 69.4 66.3L60.8 71.8C57.6 73.9 54.1 74.9 50.5 74.9ZM51.5 38.7L43 44.2C39.8 46.3 37.7 49.3 36.9 52.8C36.1 56.5 36.8 60.2 38.7 63.2C40.7 66.4 43.7 68.5 47.3 69.3H47.4C48.3 69.5 49.2 69.6 50.4 69.6C53 69.6 55.5 68.9 57.8 67.4L66.3 61.9L51.5 38.7Z" fill="white"/>
<path d="M69.9 120.9C66.1 120.9 62.5 119 60.5 115.8L51.4 101.6C48.3 96.6 49.5 90.1 54.3 86.6L76.4 70.6C81.2 67.1 87 65.8 92.7 66.9C98.4 67.9 103.4 71.4 106.5 76.3C109.7 81.3 110.6 87.2 109.1 92.9C107.7 98.6 104.1 103.4 98.9 106.2L75.2 119.4C73.7 120.4 71.9 120.9 69.9 120.9ZM88.7 71.9C85.4 71.9 82.2 72.9 79.5 74.9L57.4 90.9C54.9 92.7 54.2 96.2 55.9 98.8L65 113C66.1 114.7 67.9 115.7 70 115.7C71.1 115.7 71.9 115.5 72.7 115L72.8 114.9L96.5 101.7C100.4 99.5 103.1 96 104.1 91.7C105.2 87.4 104.5 83 102.1 79.2C99.8 75.5 96 73 91.8 72.2C90.7 72 89.7 71.9 88.7 71.9Z" fill="white"/>
<path d="M41.2 137.8C39.7 137.8 38.3 137.6 37 137.3C32.1 136.3 27.9 133.3 25.1 129C19.4 120.2 22 108.4 30.9 102.7L39.6 97.1C42 95.7 45.1 96.4 46.6 98.7L61.7 122.2C63.1 124.6 62.4 127.7 60.1 129.2L51.5 134.7C48.3 136.8 44.8 137.8 41.2 137.8ZM42.2 101.7L33.7 107.1C27.3 111.2 25.4 119.8 29.5 126.2C31.6 129.4 34.6 131.5 38.1 132.2H38.2C39.1 132.4 40 132.5 41.2 132.5C43.8 132.5 46.3 131.8 48.6 130.3L57.1 124.8L42.2 101.7Z" fill="white"/>
</svg>
