<svg width="142" height="142" viewBox="0 0 142 142" fill="none" xmlns="http://www.w3.org/2000/svg">
<path fill-rule="evenodd" clip-rule="evenodd" d="M70.8 10.1804C37.2103 10.1804 9.98048 37.4103 9.98048 71C9.98048 104.59 37.2103 131.82 70.8 131.82C104.39 131.82 131.62 104.59 131.62 71C131.62 37.4103 104.39 10.1804 70.8 10.1804ZM3.81958 71C3.81958 34.0077 33.8078 4.01955 70.8 4.01955C107.792 4.01955 137.78 34.0077 137.78 71C137.78 107.992 107.792 137.98 70.8 137.98C33.8078 137.98 3.81958 107.992 3.81958 71Z" fill="white"/>
<path fill-rule="evenodd" clip-rule="evenodd" d="M38.5402 39.5182C39.3595 38.6442 40.4737 38.2195 41.6 38.2195H64.5C66.8344 38.2195 68.7785 40.1791 68.5805 42.6578V65.2C68.5805 66.1779 68.2501 67.2388 67.4598 68.0818C66.6405 68.9558 65.5263 69.3804 64.4 69.3804H41.6C40.6221 69.3804 39.5611 69.0501 38.7181 68.2598C37.8442 67.4404 37.4196 66.3263 37.4196 65.2V42.4C37.4196 41.4221 37.7499 40.3612 38.5402 39.5182ZM43.5805 44.3804V63.2195H62.4196V44.3804H43.5805ZM85.4274 39.7162C87.0307 38.1188 89.5771 38.1206 91.1782 39.7218L103.578 52.1218C104.33 52.8737 104.824 53.9486 104.764 55.1538C104.707 56.2976 104.165 57.2768 103.394 57.9619L91.0782 70.2782C89.4752 71.8812 86.9248 71.8812 85.3218 70.2782L72.9218 57.8782C71.3188 56.2752 71.3188 53.7248 72.9218 52.1218L72.9306 52.1131L85.4218 39.7218C85.4236 39.7199 85.4255 39.7181 85.4274 39.7162ZM88.2941 45.5505L78.7624 55.0059L88.2 64.4436L97.6936 54.95L88.2941 45.5505ZM89.7782 44.0782C89.7753 44.0811 89.7724 44.084 89.7694 44.0869L89.7782 44.0782ZM38.5402 75.3181C39.3596 74.4442 40.4737 74.0195 41.6 74.0195H64.5C66.5917 74.0195 68.8209 75.7742 68.5805 78.383V101C68.5805 101.978 68.2501 103.039 67.4598 103.882C66.6405 104.756 65.5263 105.18 64.4 105.18H41.6C40.6221 105.18 39.5612 104.85 38.7182 104.06C37.8442 103.24 37.4196 102.126 37.4196 101V78.2C37.4196 77.2221 37.7499 76.1611 38.5402 75.3181ZM43.5805 80.1804V99.0195H62.4196V80.1804H43.5805ZM74.3402 75.3181C75.1596 74.4442 76.2737 74.0195 77.4 74.0195H100.2C102.187 74.0195 104.649 75.6085 104.38 78.3888V101C104.38 101.978 104.05 103.039 103.26 103.882C102.44 104.756 101.326 105.18 100.2 105.18H77.4C76.4221 105.18 75.3612 104.85 74.5182 104.06C73.6442 103.24 73.2196 102.126 73.2196 101V78.2C73.2196 77.2221 73.5499 76.1611 74.3402 75.3181ZM79.3805 80.1804V99.0195H98.2196V80.1804H79.3805Z" fill="white"/>
</svg>
