<svg width="142" height="142" viewBox="0 0 142 142" fill="none" xmlns="http://www.w3.org/2000/svg">
<path fill-rule="evenodd" clip-rule="evenodd" d="M10.8506 8.65407C13.3602 7.38924 16.3684 7.64602 18.6274 9.31791L94.4274 65.4179C96.3228 66.8207 97.4413 69.0388 97.4423 71.3968C97.4433 73.7549 96.3267 75.9739 94.4325 77.3783L18.6325 133.578C16.374 135.253 13.3646 135.512 10.8534 134.247C8.34216 132.983 6.75775 130.412 6.75775 127.6V15.3C6.75775 12.4896 8.34089 9.91891 10.8506 8.65407ZM21.6422 30.0669V112.817L77.4971 71.4053L21.6422 30.0669Z" fill="white"/>
<path fill-rule="evenodd" clip-rule="evenodd" d="M127.6 4.55775C131.71 4.55775 135.042 7.88976 135.042 12V130.8C135.042 134.91 131.71 138.242 127.6 138.242C123.49 138.242 120.158 134.91 120.158 130.8V12C120.158 7.88976 123.49 4.55775 127.6 4.55775Z" fill="white"/>
</svg>
