<svg width="142" height="142" viewBox="0 0 142 142" fill="none" xmlns="http://www.w3.org/2000/svg">
<path fill-rule="evenodd" clip-rule="evenodd" d="M57.5 4.4615C59.0677 4.4615 60.3385 5.73234 60.3385 7.3V49.4C60.3385 55.3677 55.4677 60.2385 49.5 60.2385H6.8C5.23234 60.2385 3.9615 58.9677 3.9615 57.4C3.9615 55.8323 5.23234 54.5615 6.8 54.5615H49.5C52.3323 54.5615 54.6615 52.2323 54.6615 49.4V7.3C54.6615 5.73234 55.9323 4.4615 57.5 4.4615Z" fill="white"/>
<path fill-rule="evenodd" clip-rule="evenodd" d="M3.9615 85.2C3.9615 83.6324 5.23234 82.3615 6.8 82.3615H49.4C55.3677 82.3615 60.2385 87.2324 60.2385 93.2V135.6C60.2385 137.168 58.9677 138.439 57.4 138.439C55.8323 138.439 54.5615 137.168 54.5615 135.6V93.2C54.5615 90.3677 52.2323 88.0385 49.4 88.0385H6.8C5.23234 88.0385 3.9615 86.7677 3.9615 85.2Z" fill="white"/>
<path fill-rule="evenodd" clip-rule="evenodd" d="M93.2 88.1385C90.3677 88.1385 88.0385 90.4676 88.0385 93.3V135.7C88.0385 137.268 86.7677 138.538 85.2 138.538C83.6323 138.538 82.3615 137.268 82.3615 135.7V93.3C82.3615 87.3323 87.2323 82.4615 93.2 82.4615H135.1C136.668 82.4615 137.939 83.7323 137.939 85.3C137.939 86.8676 136.668 88.1385 135.1 88.1385H93.2Z" fill="white"/>
<path fill-rule="evenodd" clip-rule="evenodd" d="M85.3 4.4615C86.8677 4.4615 88.1385 5.73234 88.1385 7.3V49.4C88.1385 52.2323 90.4677 54.5615 93.3 54.5615H135.2C136.768 54.5615 138.038 55.8323 138.038 57.4C138.038 58.9677 136.768 60.2385 135.2 60.2385H93.3C87.3323 60.2385 82.4615 55.3677 82.4615 49.4V7.3C82.4615 5.73234 83.7323 4.4615 85.3 4.4615Z" fill="white"/>
</svg>
