<svg width="142" height="142" viewBox="0 0 142 142" fill="none" xmlns="http://www.w3.org/2000/svg">
<path fill-rule="evenodd" clip-rule="evenodd" d="M71 10.3804C37.4103 10.3804 10.1805 37.6103 10.1805 71.2C10.1805 104.79 37.4103 132.02 71 132.02C104.59 132.02 131.82 104.79 131.82 71.2C131.82 37.6103 104.59 10.3804 71 10.3804ZM4.01956 71.2C4.01956 34.2077 34.0077 4.21954 71 4.21954C107.992 4.21954 137.98 34.2077 137.98 71.2C137.98 108.192 107.992 138.18 71 138.18C34.0077 138.18 4.01956 108.192 4.01956 71.2Z" fill="white"/>
<path fill-rule="evenodd" clip-rule="evenodd" d="M61.1 44.9196C62.8013 44.9196 64.1805 46.2987 64.1805 48V94.5C64.1805 96.2013 62.8013 97.5805 61.1 97.5805C59.3987 97.5805 58.0196 96.2013 58.0196 94.5V48C58.0196 46.2987 59.3987 44.9196 61.1 44.9196Z" fill="white"/>
<path fill-rule="evenodd" clip-rule="evenodd" d="M80.9 44.9196C82.6013 44.9196 83.9805 46.2987 83.9805 48V94.5C83.9805 96.2013 82.6013 97.5805 80.9 97.5805C79.1987 97.5805 77.8196 96.2013 77.8196 94.5V48C77.8196 46.2987 79.1987 44.9196 80.9 44.9196Z" fill="white"/>
</svg>
