<svg width="142" height="142" viewBox="0 0 142 142" fill="none" xmlns="http://www.w3.org/2000/svg">
<path fill-rule="evenodd" clip-rule="evenodd" d="M90.6066 69.548C91.6294 70.9324 91.3363 72.8837 89.952 73.9065L58.552 97.1065C57.1677 98.1294 55.2163 97.8363 54.1935 96.452C53.1707 95.0676 53.4637 93.1163 54.848 92.0934L86.248 68.8934C87.6324 67.8706 89.5837 68.1637 90.6066 69.548Z" fill="#04c3f3"/>
<path fill-rule="evenodd" clip-rule="evenodd" d="M54.1973 46.2429C55.2229 44.8606 57.1749 44.5716 58.5571 45.5973L89.9571 68.8973C91.3393 69.9229 91.6284 71.8749 90.6027 73.2571C89.5771 74.6393 87.6251 74.9284 86.2429 73.9027L54.8429 50.6027C53.4607 49.5771 53.1716 47.6251 54.1973 46.2429Z" fill="#04c3f3"/>
<path fill-rule="evenodd" clip-rule="evenodd" d="M70.9 10.5165C37.275 10.5165 10.0165 37.775 10.0165 71.4C10.0165 105.025 37.275 132.283 70.9 132.283C104.525 132.283 131.784 105.025 131.784 71.4C131.784 37.775 104.525 10.5165 70.9 10.5165ZM3.78351 71.4C3.78351 34.3326 33.8326 4.28349 70.9 4.28349C107.967 4.28349 138.016 34.3326 138.016 71.4C138.016 108.467 107.967 138.516 70.9 138.516C33.8326 138.516 3.78351 108.467 3.78351 71.4Z" fill="#04c3f3"/>
<path fill-rule="evenodd" clip-rule="evenodd" d="M56.7 44.9835C58.4212 44.9835 59.8165 46.3788 59.8165 48.1V94.6C59.8165 96.3212 58.4212 97.7165 56.7 97.7165C54.9788 97.7165 53.5835 96.3212 53.5835 94.6V48.1C53.5835 46.3788 54.9788 44.9835 56.7 44.9835Z" fill="#04c3f3"/>
</svg>
