<svg width="142" height="142" viewBox="0 0 142 142" fill="none" xmlns="http://www.w3.org/2000/svg">
<path fill-rule="evenodd" clip-rule="evenodd" d="M70.9 10.1726C37.3612 10.1726 10.1726 37.3612 10.1726 70.9C10.1726 104.439 37.3612 131.627 70.9 131.627C104.439 131.627 131.627 104.439 131.627 70.9C131.627 37.3612 104.439 10.1726 70.9 10.1726ZM4.02734 70.9C4.02734 33.9672 33.9672 4.02734 70.9 4.02734C107.833 4.02734 137.773 33.9672 137.773 70.9C137.773 107.833 107.833 137.773 70.9 137.773C33.9672 137.773 4.02734 107.833 4.02734 70.9Z" fill="white"/>
<path d="M70.9 79.8C80.9516 79.8 89.1 71.6516 89.1 61.6C89.1 51.5484 80.9516 43.4 70.9 43.4C60.8484 43.4 52.7 51.5484 52.7 61.6C52.7 71.6516 60.8484 79.8 70.9 79.8Z" fill="white"/>
<path d="M115.2 115.1C107 99.1 90.3 88.1 71.1 88.1C51.5 88.1 34.6 99.5 26.5 115.9C26.5 115.9 53.2 134.6 70.2 134.6C87.8 134.6 115.2 115.1 115.2 115.1Z" fill="white"/>
</svg>
