<svg width="142" height="142" viewBox="0 0 142 142" fill="none" xmlns="http://www.w3.org/2000/svg">
<path fill-rule="evenodd" clip-rule="evenodd" d="M59.1 11.6021C35.6843 11.6021 16.7021 30.5843 16.7021 54C16.7021 77.4157 35.6843 96.3979 59.1 96.3979C82.5157 96.3979 101.498 77.4157 101.498 54C101.498 30.5843 82.5157 11.6021 59.1 11.6021ZM8.69788 54C8.69788 26.1637 31.2637 3.5979 59.1 3.5979C86.9363 3.5979 109.502 26.1637 109.502 54C109.502 81.8363 86.9363 104.402 59.1 104.402C31.2637 104.402 8.69788 81.8363 8.69788 54Z" fill="white"/>
<path fill-rule="evenodd" clip-rule="evenodd" d="M85.1144 87.5328C86.7531 86.0496 89.284 86.1756 90.7672 87.8144L129.867 131.014C131.35 132.653 131.224 135.184 129.586 136.667C127.947 138.15 125.416 138.024 123.933 136.386L84.8328 93.1856C83.3496 91.5469 83.4756 89.016 85.1144 87.5328Z" fill="white"/>
</svg>
