<svg width="142" height="142" viewBox="0 0 142 142" fill="none" xmlns="http://www.w3.org/2000/svg">
<path fill-rule="evenodd" clip-rule="evenodd" d="M70.6 9.57814C37.009 9.57814 9.77815 36.809 9.77815 70.4C9.77815 103.991 37.009 131.222 70.6 131.222C104.191 131.222 131.422 103.991 131.422 70.4C131.422 36.809 104.191 9.57814 70.6 9.57814ZM3.62185 70.4C3.62185 33.409 33.609 3.42184 70.6 3.42184C107.591 3.42184 137.578 33.409 137.578 70.4C137.578 107.391 107.591 137.378 70.6 137.378C33.609 137.378 3.62185 107.391 3.62185 70.4Z" fill="white"/>
<path fill-rule="evenodd" clip-rule="evenodd" d="M70.6 47.1822C72.101 47.1822 73.3178 48.399 73.3178 49.9V90.9C73.3178 92.401 72.101 93.6178 70.6 93.6178C69.099 93.6178 67.8822 92.401 67.8822 90.9V49.9C67.8822 48.399 69.099 47.1822 70.6 47.1822Z" fill="white"/>
<path fill-rule="evenodd" clip-rule="evenodd" d="M47.3822 70.4C47.3822 68.899 48.599 67.6822 50.1 67.6822H91.1C92.601 67.6822 93.8178 68.899 93.8178 70.4C93.8178 71.901 92.601 73.1178 91.1 73.1178H50.1C48.599 73.1178 47.3822 71.901 47.3822 70.4Z" fill="white"/>
</svg>
